# Blender 3.4.1
# www.blender.org
o HugeWindow
v -3.800000 1.970000 4.060000
v -3.800000 1.970000 -1.940000
v -3.800000 1.015374 4.060000
v -3.800000 1.015374 -1.940000
v -3.831872 1.970000 4.060000
v -3.831872 1.970000 -1.940000
v -3.831872 1.015374 4.060000
v -3.831872 1.015374 -1.940000
v -3.801075 1.937813 -1.737698
v -3.801075 1.937813 3.857704
v -3.801075 1.047560 3.857704
v -3.801075 1.047560 -1.737698
v -3.830798 1.937813 -1.737698
v -3.830798 1.937813 3.857704
v -3.830798 1.047560 3.857704
v -3.830798 1.047560 -1.737698
v -3.800000 1.492687 4.060000
v -3.831872 1.492687 4.060000
v -3.801075 1.492687 3.857704
v -3.830798 1.492687 3.857704
v -3.800000 1.492687 -1.940000
v -3.831872 1.492687 -1.940000
v -3.801075 1.492687 -1.737698
v -3.830798 1.492687 -1.737698
v -3.800000 1.970000 1.060000
v -3.831872 1.970000 1.060000
v -3.801075 1.937813 1.060000
v -3.830798 1.937813 1.060000
v -3.800000 1.015374 1.060000
v -3.831872 1.015374 1.060000
v -3.801075 1.047560 1.060000
v -3.830798 1.047560 1.060000
v -3.815936 1.047560 3.857704
v -3.815936 1.047560 -1.737698
v -3.815936 1.937813 3.857704
v -3.815936 1.937813 -1.737698
v -3.830748 1.492687 3.857704
v -3.815936 1.512226 3.857704
v -3.801125 1.492687 3.857704
v -3.815936 1.473148 3.857704
v -3.830748 1.492687 -1.737698
v -3.815936 1.512226 -1.737698
v -3.801125 1.492687 -1.737698
v -3.815936 1.473148 -1.737698
v -3.830748 1.937813 1.060000
v -3.815936 1.937813 1.177234
v -3.801125 1.937813 1.060000
v -3.815936 1.937813 0.942766
v -3.830748 1.047560 1.060000
v -3.815936 1.047560 1.177234
v -3.801125 1.047560 1.060000
v -3.815936 1.047560 0.942766
vn -0.0000 -1.0000 -0.0000
vn -0.0000 -0.0000 1.0000
vn -0.0000 -0.0000 -1.0000
vn -0.0000 1.0000 -0.0000
vn -0.9994 -0.0333 -0.0000
vn 1.0000 -0.0000 0.0053
vn 0.9994 -0.0334 -0.0000
vn -0.9994 0.0334 -0.0000
vn -1.0000 -0.0000 -0.0053
vn 0.9994 0.0334 -0.0000
vn 1.0000 -0.0000 -0.0053
vn -1.0000 -0.0000 0.0053
vn -0.9994 0.0333 -0.0000
vn 0.9921 -0.0000 -0.1253
vn 0.9921 -0.0000 0.1253
vn 0.7969 0.6041 -0.0000
vn 0.7969 -0.6041 -0.0000
vn -0.7969 -0.6041 -0.0000
vn -0.7969 0.6041 -0.0000
vn -0.9921 -0.0000 -0.1253
vn -0.9921 -0.0000 0.1253
vn -0.0000 1.0000 -0.0001
vn -0.0000 -1.0000 -0.0004
vt 0.000000 0.000000
vt 0.000000 0.000000
vt 0.000000 0.000000
vt 0.000000 0.000000
vt 0.000000 0.000000
vt 0.000000 0.000000
vt 0.000000 0.000000
vt 0.000000 0.000000
vt 0.000000 0.000000
vt 0.000000 0.000000
vt 0.000000 0.000000
vt 0.000000 0.000000
vt 0.000000 0.000000
vt 0.000000 0.000000
vt 0.000000 0.000000
vt 0.000000 0.000000
vt 0.000000 0.000000
vt 0.000000 0.000000
vt 0.000000 0.000000
vt 0.000000 0.000000
vt 0.000000 0.000000
vt 0.000000 0.000000
vt 0.000000 0.000000
vt 0.000000 0.000000
vt 0.000000 0.000000
vt 0.000000 0.000000
vt 0.000000 0.000000
vt 0.000000 0.000000
vt 0.000000 0.000000
vt 0.000000 0.000000
vt 0.000000 0.000000
vt 0.000000 0.000000
vt 0.000000 0.000000
vt 0.000000 0.000000
vt 0.000000 0.000000
vt 0.000000 0.000000
vt 0.000000 0.000000
vt 0.000000 0.000000
vt 0.000000 0.000000
vt 0.000000 0.000000
vt 0.000000 0.000000
vt 0.000000 0.000000
vt 0.000000 0.000000
vt 0.000000 0.000000
vt 0.000000 0.000000
vt 0.000000 0.000000
vt 0.000000 0.000000
vt 0.000000 0.000000
vt 0.000000 0.000000
vt 0.000000 0.000000
vt 0.000000 0.000000
vt 0.000000 0.000000
s 0
f 30/30/1 4/4/1 29/29/1
f 18/18/2 3/3/2 17/17/2
f 4/4/3 22/22/3 21/21/3
f 2/2/4 26/26/4 25/25/4
f 13/13/2 41/41/2 42/42/2
f 14/14/1 45/45/1 46/46/1
f 50/50/4 32/32/4 15/15/4
f 26/26/5 14/14/5 5/5/5
f 21/21/6 12/12/6 4/4/6
f 25/25/7 9/9/7 2/2/7
f 30/30/8 15/15/8 32/32/8
f 18/18/9 14/14/9 20/20/9
f 29/29/10 12/12/10 31/31/10
f 17/17/11 11/11/11 19/19/11
f 22/22/12 13/13/12 6/6/12
f 17/17/11 10/10/11 1/1/11
f 18/18/9 15/15/9 7/7/9
f 11/11/3 40/40/3 39/39/3
f 5/5/2 17/17/2 1/1/2
f 16/16/12 22/22/12 8/8/12
f 9/9/6 21/21/6 2/2/6
f 43/43/2 34/34/2 12/12/2
f 21/21/3 6/6/3 2/2/3
f 10/10/7 25/25/7 1/1/7
f 13/13/5 26/26/5 6/6/5
f 47/47/1 36/36/1 9/9/1
f 25/25/4 5/5/4 1/1/4
f 29/29/10 11/11/10 3/3/10
f 30/30/13 16/16/13 8/8/13
f 12/12/4 52/52/4 51/51/4
f 7/7/1 29/29/1 3/3/1
f 52/52/4 16/16/4 32/32/4
f 28/28/1 36/36/1 48/48/1
f 24/24/2 34/34/2 44/44/2
f 40/40/3 15/15/3 20/20/3
f 35/35/1 47/47/1 27/27/1
f 36/36/2 43/43/2 23/23/2
f 19/19/3 38/38/3 35/35/3
f 31/31/4 50/50/4 33/33/4
f 51/51/14 48/48/14 47/47/14
f 50/50/15 47/47/15 46/46/15
f 38/38/3 20/20/3 14/14/3
f 39/39/16 42/42/16 38/38/16
f 40/40/17 43/43/17 39/39/17
f 37/37/18 44/44/18 40/40/18
f 38/38/19 41/41/19 37/37/19
f 52/52/20 45/45/20 48/48/20
f 49/49/21 46/46/21 45/45/21
f 30/30/1 8/8/1 4/4/1
f 18/18/2 7/7/2 3/3/2
f 4/4/3 8/8/3 22/22/3
f 2/2/4 6/6/4 26/26/4
f 42/42/2 36/36/2 13/13/2
f 13/13/2 24/24/2 41/41/2
f 46/46/1 35/35/1 14/14/1
f 14/14/1 28/28/1 45/45/1
f 15/15/4 33/33/4 50/50/4
f 50/50/22 49/49/22 32/32/22
f 26/26/5 28/28/5 14/14/5
f 21/21/6 23/23/6 12/12/6
f 25/25/7 27/27/7 9/9/7
f 30/30/13 7/7/13 15/15/13
f 18/18/9 5/5/9 14/14/9
f 29/29/10 4/4/10 12/12/10
f 17/17/11 3/3/11 11/11/11
f 22/22/12 24/24/12 13/13/12
f 17/17/11 19/19/11 10/10/11
f 18/18/9 20/20/9 15/15/9
f 39/39/3 19/19/3 11/11/3
f 11/11/3 33/33/3 40/40/3
f 5/5/2 18/18/2 17/17/2
f 16/16/12 24/24/12 22/22/12
f 9/9/6 23/23/6 21/21/6
f 12/12/2 23/23/2 43/43/2
f 43/43/2 44/44/2 34/34/2
f 21/21/3 22/22/3 6/6/3
f 10/10/7 27/27/7 25/25/7
f 13/13/5 28/28/5 26/26/5
f 9/9/1 27/27/1 47/47/1
f 47/47/1 48/48/1 36/36/1
f 25/25/4 26/26/4 5/5/4
f 29/29/10 31/31/10 11/11/10
f 30/30/8 32/32/8 16/16/8
f 51/51/4 31/31/4 12/12/4
f 12/12/4 34/34/4 52/52/4
f 7/7/1 30/30/1 29/29/1
f 32/32/4 49/49/4 52/52/4
f 52/52/4 34/34/4 16/16/4
f 48/48/23 45/45/23 28/28/23
f 28/28/1 13/13/1 36/36/1
f 44/44/2 41/41/2 24/24/2
f 24/24/2 16/16/2 34/34/2
f 20/20/3 37/37/3 40/40/3
f 40/40/3 33/33/3 15/15/3
f 27/27/1 10/10/1 35/35/1
f 35/35/1 46/46/1 47/47/1
f 23/23/2 9/9/2 36/36/2
f 36/36/2 42/42/2 43/43/2
f 35/35/3 10/10/3 19/19/3
f 19/19/3 39/39/3 38/38/3
f 33/33/4 11/11/4 31/31/4
f 31/31/4 51/51/4 50/50/4
f 51/51/14 52/52/14 48/48/14
f 50/50/15 51/51/15 47/47/15
f 14/14/3 35/35/3 38/38/3
f 38/38/3 37/37/3 20/20/3
f 39/39/16 43/43/16 42/42/16
f 40/40/17 44/44/17 43/43/17
f 37/37/18 41/41/18 44/44/18
f 38/38/19 42/42/19 41/41/19
f 52/52/20 49/49/20 45/45/20
f 49/49/21 50/50/21 46/46/21
