# Blender 3.4.1
# www.blender.org
mtllib floor.mtl
o Floor
v -4.000000 -0.000004 5.000000
v -4.000000 0.000004 -5.000000
v 4.000000 -0.000004 5.000000
v 4.000000 0.000004 -5.000000
v 3.600000 -0.000004 5.000000
v -3.600000 -0.000004 5.000000
v -0.960000 -0.000004 5.000000
v 0.960000 -0.000004 5.000000
v 2.280000 -0.000004 5.000000
v 1.620000 -0.000004 5.000000
v -2.280000 -0.000004 5.000000
v -2.940000 -0.000004 5.000000
v -1.620000 -0.000004 5.000000
v 2.940000 -0.000004 5.000000
v -4.000000 -0.431744 5.000000
v -4.000000 -0.431737 -5.000000
v 4.000000 -0.431744 5.000000
v 4.000000 -0.431737 -5.000000
vn -0.0000 1.0000 -0.0000
vn -0.0000 -1.0000 -0.0000
vn -1.0000 -0.0000 -0.0000
vn -0.0000 -0.0000 -1.0000
vn -0.0000 -0.0000 1.0000
vn 1.0000 -0.0000 -0.0000
vt 0.988828 -0.769846
vt -0.002736 0.055310
vt 0.988828 1.629112
vt -0.002736 0.678579
vt 0.535110 -0.769846
vt 0.526675 -0.000956
vt 0.535110 1.629112
vt 0.526675 0.622313
vt 0.029640 0.080521
vt 0.024087 0.641276
vt 0.499851 0.036347
vt 0.494299 0.597102
s 0
f 4/7/1 2/3/1 1/1/1
f 15/9/2 16/10/2 18/12/2
f 1/2/3 2/4/3 16/10/3
f 2/4/4 4/8/4 18/12/4
f 3/6/5 1/2/5 15/9/5
f 4/8/6 3/6/6 17/11/6
f 4/7/1 1/1/1 3/5/1
f 15/9/2 18/12/2 17/11/2
f 1/2/3 16/10/3 15/9/3
f 2/4/4 18/12/4 16/10/4
f 3/6/5 15/9/5 17/11/5
f 4/8/6 17/11/6 18/12/6
l 3 5
l 1 6
l 7 8
l 9 10
l 11 12
l 11 13
l 9 14
l 6 12
l 5 14
l 8 10
l 7 13
