# Blender 3.4.1
# www.blender.org
mtllib water_bowl.mtl
o WaterBowl
v -3.320000 -0.000920 -2.630000
v -3.320000 0.106920 -2.588006
v -3.280982 -0.000920 -2.626157
v -3.289881 0.106920 -2.584970
v -3.243464 -0.000920 -2.614776
v -3.260919 0.106920 -2.575979
v -3.208886 -0.000920 -2.596294
v -3.234228 0.106920 -2.561377
v -3.178579 -0.000920 -2.571421
v -3.210833 0.106920 -2.541727
v -3.153706 -0.000920 -2.541114
v -3.191633 0.106920 -2.517783
v -3.135224 -0.000920 -2.506536
v -3.177367 0.106920 -2.490466
v -3.123843 -0.000920 -2.469018
v -3.168581 0.106920 -2.460825
v -3.120000 -0.000920 -2.430000
v -3.165615 0.106920 -2.430000
v -3.123843 -0.000920 -2.390982
v -3.168581 0.106920 -2.399174
v -3.135224 -0.000920 -2.353463
v -3.177367 0.106920 -2.369534
v -3.153706 -0.000920 -2.318886
v -3.191633 0.106920 -2.342216
v -3.178579 -0.000920 -2.288579
v -3.210833 0.106920 -2.318273
v -3.208886 -0.000920 -2.263706
v -3.234228 0.106920 -2.298622
v -3.243464 -0.000920 -2.245224
v -3.260919 0.106920 -2.284021
v -3.280982 -0.000920 -2.233843
v -3.289881 0.106920 -2.275030
v -3.320000 -0.000920 -2.230000
v -3.320000 0.106920 -2.271994
v -3.359018 -0.000920 -2.233843
v -3.350119 0.106920 -2.275030
v -3.396537 -0.000920 -2.245224
v -3.379081 0.106920 -2.284021
v -3.431114 -0.000920 -2.263706
v -3.405772 0.106920 -2.298622
v -3.461421 -0.000920 -2.288579
v -3.429167 0.106920 -2.318273
v -3.486294 -0.000920 -2.318886
v -3.448367 0.106920 -2.342216
v -3.504776 -0.000920 -2.353463
v -3.462634 0.106920 -2.369534
v -3.516157 -0.000920 -2.390982
v -3.471419 0.106920 -2.399174
v -3.520000 -0.000920 -2.430000
v -3.474386 0.106920 -2.430000
v -3.516157 -0.000920 -2.469018
v -3.471419 0.106920 -2.460825
v -3.504776 -0.000920 -2.506536
v -3.462634 0.106920 -2.490466
v -3.486294 -0.000920 -2.541114
v -3.448367 0.106920 -2.517783
v -3.461421 -0.000920 -2.571421
v -3.429167 0.106920 -2.541727
v -3.431114 -0.000920 -2.596294
v -3.405772 0.106920 -2.561377
v -3.396537 -0.000920 -2.614776
v -3.379081 0.106920 -2.575979
v -3.359018 -0.000920 -2.626157
v -3.350119 0.106920 -2.584970
v -3.289881 0.061534 -2.584970
v -3.320000 0.061534 -2.588006
v -3.260919 0.061534 -2.575979
v -3.234228 0.061534 -2.561377
v -3.210833 0.061534 -2.541727
v -3.191633 0.061534 -2.517783
v -3.177367 0.061534 -2.490466
v -3.168581 0.061534 -2.460825
v -3.165615 0.061534 -2.430000
v -3.168581 0.061534 -2.399174
v -3.177367 0.061534 -2.369534
v -3.191633 0.061534 -2.342216
v -3.210833 0.061534 -2.318273
v -3.234228 0.061534 -2.298622
v -3.260919 0.061534 -2.284021
v -3.289881 0.061534 -2.275030
v -3.320000 0.061534 -2.271994
v -3.350119 0.061534 -2.275030
v -3.379081 0.061534 -2.284021
v -3.405772 0.061534 -2.298622
v -3.429167 0.061534 -2.318273
v -3.448367 0.061534 -2.342216
v -3.462634 0.061534 -2.369534
v -3.471419 0.061534 -2.399174
v -3.474386 0.061534 -2.430000
v -3.471419 0.061534 -2.460825
v -3.462634 0.061534 -2.490466
v -3.448367 0.061534 -2.517783
v -3.429167 0.061534 -2.541727
v -3.405772 0.061534 -2.561377
v -3.379081 0.061534 -2.575979
v -3.350119 0.061534 -2.584970
vn 0.0914 0.3619 -0.9277
vn 0.2703 0.3644 -0.8912
vn 0.4382 0.3684 -0.8199
vn 0.5885 0.3735 -0.7171
vn 0.7155 0.3786 -0.5872
vn 0.8146 0.3832 -0.4354
vn 0.8826 0.3865 -0.2677
vn 0.9172 0.3880 -0.0903
vn 0.9172 0.3880 0.0903
vn 0.8826 0.3865 0.2677
vn 0.8146 0.3832 0.4354
vn 0.7155 0.3786 0.5872
vn 0.5885 0.3735 0.7171
vn 0.4382 0.3684 0.8199
vn 0.2703 0.3644 0.8912
vn 0.0914 0.3619 0.9277
vn -0.0914 0.3619 0.9277
vn -0.2703 0.3644 0.8912
vn -0.4382 0.3684 0.8199
vn -0.5885 0.3735 0.7171
vn -0.7155 0.3786 0.5872
vn -0.8146 0.3832 0.4354
vn -0.8826 0.3865 0.2677
vn -0.9172 0.3880 0.0903
vn -0.9172 0.3880 -0.0903
vn -0.8826 0.3865 -0.2677
vn -0.8146 0.3832 -0.4354
vn -0.7155 0.3786 -0.5872
vn -0.5885 0.3735 -0.7171
vn -0.4382 0.3684 -0.8199
vn -0.9954 -0.0000 -0.0958
vn -0.2703 0.3644 -0.8912
vn -0.0914 0.3619 -0.9277
vn -0.0000 -1.0000 -0.0000
vn -0.0000 1.0000 -0.0000
vn 0.2965 -0.0000 -0.9550
vn 0.8864 -0.0000 0.4629
vn -0.7802 -0.0000 0.6256
vn -0.4799 -0.0000 -0.8773
vn 0.9588 -0.0000 -0.2842
vn -0.1003 -0.0000 0.9950
vn 0.1003 -0.0000 0.9950
vn -0.9588 -0.0000 -0.2842
vn 0.4799 -0.0000 -0.8773
vn 0.7802 -0.0000 0.6256
vn -0.8864 -0.0000 0.4629
vn -0.2965 -0.0000 -0.9550
vn 0.9954 -0.0000 -0.0958
vn -0.2965 -0.0000 0.9550
vn -0.8864 -0.0000 -0.4629
vn 0.6432 -0.0000 -0.7657
vn 0.6432 -0.0000 0.7657
vn -0.9588 -0.0000 0.2842
vn -0.1003 -0.0000 -0.9950
vn 0.9954 -0.0000 0.0958
vn -0.4799 -0.0000 0.8773
vn -0.7802 -0.0000 -0.6256
vn 0.7802 -0.0000 -0.6256
vn 0.4799 -0.0000 0.8773
vn -0.9954 -0.0000 0.0958
vn 0.1003 -0.0000 -0.9950
vn 0.9588 -0.0000 0.2842
vn -0.6432 -0.0000 0.7657
vn -0.6432 -0.0000 -0.7657
vn 0.8864 -0.0000 -0.4629
vn 0.2965 -0.0000 0.9550
vn 0.0935 0.3613 -0.9278
vn 0.2763 0.3627 -0.8900
vn 0.4466 0.3660 -0.8164
vn 0.5973 0.3706 -0.7112
vn 0.7230 0.3759 -0.5797
vn 0.8196 0.3809 -0.4280
vn 0.8849 0.3849 -0.2623
vn 0.9177 0.3874 -0.0883
vn 0.9177 0.3874 0.0883
vn 0.8849 0.3849 0.2623
vn 0.8196 0.3809 0.4280
vn 0.7230 0.3759 0.5797
vn 0.5973 0.3706 0.7112
vn 0.4466 0.3660 0.8164
vn 0.2763 0.3627 0.8900
vn 0.0935 0.3613 0.9278
vn -0.0935 0.3613 0.9278
vn -0.2763 0.3627 0.8900
vn -0.4466 0.3660 0.8164
vn -0.5973 0.3706 0.7112
vn -0.7230 0.3759 0.5797
vn -0.8196 0.3809 0.4280
vn -0.8849 0.3849 0.2623
vn -0.9177 0.3874 0.0883
vn -0.9177 0.3874 -0.0883
vn -0.8849 0.3849 -0.2623
vn -0.8196 0.3809 -0.4280
vn -0.7230 0.3759 -0.5797
vn -0.5973 0.3706 -0.7112
vn -0.4466 0.3660 -0.8164
vn -0.2763 0.3627 -0.8900
vn -0.0935 0.3613 -0.9278
vt 0.993884 0.523077
vt 0.298450 0.523077
vt 0.630259 0.981510
vt 0.298450 0.991381
vt 0.993884 0.991381
vt 0.972152 0.523077
vt 0.662820 0.977224
vt 0.972152 0.991381
vt 0.950420 0.523077
vt 0.694130 0.964529
vt 0.950420 0.991381
vt 0.928687 0.523077
vt 0.722986 0.943915
vt 0.928687 0.991381
vt 0.906955 0.523077
vt 0.748278 0.916173
vt 0.906955 0.991381
vt 0.885223 0.523077
vt 0.769034 0.882368
vt 0.885223 0.991381
vt 0.863491 0.523077
vt 0.784458 0.843801
vt 0.863491 0.991381
vt 0.841758 0.523077
vt 0.793956 0.801954
vt 0.841758 0.991381
vt 0.820026 0.523077
vt 0.797163 0.758434
vt 0.820026 0.991381
vt 0.798294 0.523077
vt 0.793956 0.714914
vt 0.798294 0.991381
vt 0.776561 0.523077
vt 0.784458 0.673066
vt 0.776561 0.991381
vt 0.754829 0.523077
vt 0.769034 0.634499
vt 0.754829 0.991381
vt 0.733097 0.523077
vt 0.748278 0.600695
vt 0.733097 0.991381
vt 0.711364 0.523077
vt 0.722986 0.572952
vt 0.711364 0.991381
vt 0.689632 0.523077
vt 0.694130 0.552338
vt 0.689632 0.991381
vt 0.667900 0.523077
vt 0.662820 0.539644
vt 0.667900 0.991381
vt 0.646167 0.523077
vt 0.630259 0.535357
vt 0.646167 0.991381
vt 0.624435 0.523077
vt 0.597697 0.539644
vt 0.624435 0.991381
vt 0.602703 0.523077
vt 0.566387 0.552338
vt 0.602703 0.991381
vt 0.580970 0.523077
vt 0.537532 0.572952
vt 0.580970 0.991381
vt 0.559238 0.523077
vt 0.512240 0.600695
vt 0.559238 0.991381
vt 0.537506 0.523077
vt 0.491483 0.634499
vt 0.537506 0.991381
vt 0.515773 0.523077
vt 0.476059 0.673066
vt 0.515773 0.991381
vt 0.494041 0.523077
vt 0.466561 0.714914
vt 0.494041 0.991381
vt 0.472309 0.523077
vt 0.463354 0.758434
vt 0.472309 0.991381
vt 0.450576 0.523077
vt 0.466561 0.801954
vt 0.450576 0.991381
vt 0.428844 0.523077
vt 0.476059 0.843801
vt 0.428844 0.991381
vt 0.407112 0.523077
vt 0.491483 0.882368
vt 0.407112 0.991381
vt 0.385379 0.523077
vt 0.512240 0.916173
vt 0.385379 0.991381
vt 0.363647 0.523077
vt 0.537532 0.943915
vt 0.363647 0.991381
vt 0.341915 0.523077
vt 0.566387 0.964529
vt 0.341915 0.991381
vt 0.320182 0.523077
vt 0.597697 0.977224
vt 0.320182 0.991381
vt 0.296822 0.485388
vt 0.972152 0.991381
vt 0.250000 0.490000
vt 0.993884 0.991381
vt 0.298450 0.991381
vt 0.341844 0.471731
vt 0.950420 0.991381
vt 0.383337 0.449553
vt 0.928687 0.991381
vt 0.419706 0.419706
vt 0.906955 0.991381
vt 0.449553 0.383337
vt 0.885223 0.991381
vt 0.471731 0.341844
vt 0.863491 0.991381
vt 0.485388 0.296822
vt 0.841758 0.991381
vt 0.490000 0.250000
vt 0.820026 0.991381
vt 0.485388 0.203178
vt 0.798294 0.991381
vt 0.471731 0.158156
vt 0.776561 0.991381
vt 0.449553 0.116663
vt 0.754829 0.991381
vt 0.419706 0.080294
vt 0.733097 0.991381
vt 0.383337 0.050447
vt 0.711364 0.991381
vt 0.341844 0.028269
vt 0.689632 0.991381
vt 0.296822 0.014612
vt 0.667900 0.991381
vt 0.250000 0.010000
vt 0.646167 0.991381
vt 0.203178 0.014612
vt 0.624435 0.991381
vt 0.158156 0.028269
vt 0.602703 0.991381
vt 0.116663 0.050447
vt 0.580970 0.991381
vt 0.080294 0.080294
vt 0.559238 0.991381
vt 0.050447 0.116663
vt 0.537506 0.991381
vt 0.028269 0.158156
vt 0.515773 0.991381
vt 0.014612 0.203178
vt 0.494041 0.991381
vt 0.010000 0.250000
vt 0.472309 0.991381
vt 0.014612 0.296822
vt 0.450576 0.991381
vt 0.028269 0.341844
vt 0.428844 0.991381
vt 0.050447 0.383337
vt 0.407112 0.991381
vt 0.080294 0.419706
vt 0.385379 0.991381
vt 0.116663 0.449553
vt 0.363647 0.991381
vt 0.158156 0.471731
vt 0.341915 0.991381
vt 0.203178 0.485388
vt 0.320182 0.991381
s 0
f 1/1/1 4/8/1 3/6/1
f 3/6/2 6/11/2 5/9/2
f 5/9/3 8/14/3 7/12/3
f 7/12/4 10/17/4 9/15/4
f 9/15/5 12/20/5 11/18/5
f 11/18/6 14/23/6 13/21/6
f 13/21/7 16/26/7 15/24/7
f 15/24/8 18/29/8 17/27/8
f 18/29/9 19/30/9 17/27/9
f 20/32/10 21/33/10 19/30/10
f 22/35/11 23/36/11 21/33/11
f 24/38/12 25/39/12 23/36/12
f 26/41/13 27/42/13 25/39/13
f 28/44/14 29/45/14 27/42/14
f 30/47/15 31/48/15 29/45/15
f 32/50/16 33/51/16 31/48/16
f 33/51/17 36/56/17 35/54/17
f 35/54/18 38/59/18 37/57/18
f 37/57/19 40/62/19 39/60/19
f 39/60/20 42/65/20 41/63/20
f 41/63/21 44/68/21 43/66/21
f 43/66/22 46/71/22 45/69/22
f 45/69/23 48/74/23 47/72/23
f 47/72/24 50/77/24 49/75/24
f 50/77/25 51/78/25 49/75/25
f 52/80/26 53/81/26 51/78/26
f 54/83/27 55/84/27 53/81/27
f 56/86/28 57/87/28 55/84/28
f 58/89/29 59/90/29 57/87/29
f 60/92/30 61/93/30 59/90/30
f 18/29/31 74/119/31 20/32/31
f 62/95/32 63/96/32 61/93/32
f 64/98/33 1/2/33 63/96/33
f 31/49/34 47/73/34 63/97/34
f 83/136/35 75/120/35 67/104/35
f 36/56/36 83/137/36 38/59/36
f 54/83/37 92/155/37 56/86/37
f 10/17/38 70/111/38 12/20/38
f 28/44/39 79/129/39 30/47/39
f 46/71/40 88/147/40 48/74/40
f 2/5/41 65/100/41 4/8/41
f 64/98/42 66/103/42 2/4/42
f 20/32/43 75/121/43 22/35/43
f 38/59/44 84/139/44 40/62/44
f 56/86/45 93/157/45 58/89/45
f 12/20/46 71/113/46 14/23/46
f 30/47/47 80/131/47 32/50/47
f 48/74/48 89/149/48 50/77/48
f 4/8/49 67/105/49 6/11/49
f 22/35/50 76/123/50 24/38/50
f 40/62/51 85/141/51 42/65/51
f 58/89/52 94/159/52 60/92/52
f 14/23/53 72/115/53 16/26/53
f 32/50/54 81/133/54 34/53/54
f 50/77/55 90/151/55 52/80/55
f 6/11/56 68/107/56 8/14/56
f 24/38/57 77/125/57 26/41/57
f 42/65/58 86/143/58 44/68/58
f 60/92/59 95/161/59 62/95/59
f 16/26/60 73/117/60 18/29/60
f 34/53/61 82/135/61 36/56/61
f 52/80/62 91/153/62 54/83/62
f 8/14/63 69/109/63 10/17/63
f 26/41/64 78/127/64 28/44/64
f 44/68/65 87/145/65 46/71/65
f 62/95/66 96/163/66 64/98/66
f 1/1/67 2/5/67 4/8/67
f 3/6/68 4/8/68 6/11/68
f 5/9/69 6/11/69 8/14/69
f 7/12/70 8/14/70 10/17/70
f 9/15/71 10/17/71 12/20/71
f 11/18/72 12/20/72 14/23/72
f 13/21/73 14/23/73 16/26/73
f 15/24/74 16/26/74 18/29/74
f 18/29/75 20/32/75 19/30/75
f 20/32/76 22/35/76 21/33/76
f 22/35/77 24/38/77 23/36/77
f 24/38/78 26/41/78 25/39/78
f 26/41/79 28/44/79 27/42/79
f 28/44/80 30/47/80 29/45/80
f 30/47/81 32/50/81 31/48/81
f 32/50/82 34/53/82 33/51/82
f 33/51/83 34/53/83 36/56/83
f 35/54/84 36/56/84 38/59/84
f 37/57/85 38/59/85 40/62/85
f 39/60/86 40/62/86 42/65/86
f 41/63/87 42/65/87 44/68/87
f 43/66/88 44/68/88 46/71/88
f 45/69/89 46/71/89 48/74/89
f 47/72/90 48/74/90 50/77/90
f 50/77/91 52/80/91 51/78/91
f 52/80/92 54/83/92 53/81/92
f 54/83/93 56/86/93 55/84/93
f 56/86/94 58/89/94 57/87/94
f 58/89/95 60/92/95 59/90/95
f 60/92/96 62/95/96 61/93/96
f 18/29/31 73/117/31 74/119/31
f 62/95/97 64/98/97 63/96/97
f 64/98/98 2/4/98 1/2/98
f 63/97/34 1/3/34 3/7/34
f 3/7/34 5/10/34 7/13/34
f 7/13/34 9/16/34 11/19/34
f 11/19/34 13/22/34 15/25/34
f 15/25/34 17/28/34 19/31/34
f 19/31/34 21/34/34 23/37/34
f 23/37/34 25/40/34 27/43/34
f 27/43/34 29/46/34 31/49/34
f 31/49/34 33/52/34 35/55/34
f 35/55/34 37/58/34 39/61/34
f 39/61/34 41/64/34 43/67/34
f 43/67/34 45/70/34 47/73/34
f 47/73/34 49/76/34 51/79/34
f 51/79/34 53/82/34 55/85/34
f 55/85/34 57/88/34 59/91/34
f 59/91/34 61/94/34 63/97/34
f 63/97/34 3/7/34 7/13/34
f 7/13/34 11/19/34 15/25/34
f 15/25/34 19/31/34 23/37/34
f 23/37/34 27/43/34 31/49/34
f 31/49/34 35/55/34 39/61/34
f 39/61/34 43/67/34 47/73/34
f 47/73/34 51/79/34 55/85/34
f 55/85/34 59/91/34 63/97/34
f 63/97/34 7/13/34 15/25/34
f 15/25/34 23/37/34 31/49/34
f 31/49/34 39/61/34 47/73/34
f 47/73/34 55/85/34 63/97/34
f 63/97/34 15/25/34 31/49/34
f 67/104/35 65/99/35 66/101/35
f 66/101/35 96/162/35 95/160/35
f 95/160/35 94/158/35 93/156/35
f 93/156/35 92/154/35 91/152/35
f 91/152/35 90/150/35 89/148/35
f 89/148/35 88/146/35 87/144/35
f 87/144/35 86/142/35 85/140/35
f 85/140/35 84/138/35 83/136/35
f 83/136/35 82/134/35 81/132/35
f 81/132/35 80/130/35 79/128/35
f 79/128/35 78/126/35 77/124/35
f 77/124/35 76/122/35 75/120/35
f 75/120/35 74/118/35 73/116/35
f 73/116/35 72/114/35 71/112/35
f 71/112/35 70/110/35 69/108/35
f 69/108/35 68/106/35 67/104/35
f 67/104/35 66/101/35 95/160/35
f 95/160/35 93/156/35 91/152/35
f 91/152/35 89/148/35 87/144/35
f 87/144/35 85/140/35 83/136/35
f 83/136/35 81/132/35 79/128/35
f 79/128/35 77/124/35 75/120/35
f 75/120/35 73/116/35 71/112/35
f 71/112/35 69/108/35 67/104/35
f 67/104/35 95/160/35 91/152/35
f 91/152/35 87/144/35 83/136/35
f 83/136/35 79/128/35 75/120/35
f 75/120/35 71/112/35 67/104/35
f 67/104/35 91/152/35 83/136/35
f 36/56/36 82/135/36 83/137/36
f 54/83/37 91/153/37 92/155/37
f 10/17/38 69/109/38 70/111/38
f 28/44/39 78/127/39 79/129/39
f 46/71/40 87/145/40 88/147/40
f 2/5/41 66/102/41 65/100/41
f 64/98/42 96/163/42 66/103/42
f 20/32/43 74/119/43 75/121/43
f 38/59/44 83/137/44 84/139/44
f 56/86/45 92/155/45 93/157/45
f 12/20/46 70/111/46 71/113/46
f 30/47/47 79/129/47 80/131/47
f 48/74/48 88/147/48 89/149/48
f 4/8/49 65/100/49 67/105/49
f 22/35/50 75/121/50 76/123/50
f 40/62/51 84/139/51 85/141/51
f 58/89/52 93/157/52 94/159/52
f 14/23/53 71/113/53 72/115/53
f 32/50/54 80/131/54 81/133/54
f 50/77/55 89/149/55 90/151/55
f 6/11/56 67/105/56 68/107/56
f 24/38/57 76/123/57 77/125/57
f 42/65/58 85/141/58 86/143/58
f 60/92/59 94/159/59 95/161/59
f 16/26/60 72/115/60 73/117/60
f 34/53/61 81/133/61 82/135/61
f 52/80/62 90/151/62 91/153/62
f 8/14/63 68/107/63 69/109/63
f 26/41/64 77/125/64 78/127/64
f 44/68/65 86/143/65 87/145/65
f 62/95/66 95/161/66 96/163/66
