# Blender 3.4.1
# www.blender.org
mtllib chair.mtl
o Chair
v -2.314480 0.613288 0.620573
v -2.314480 0.663788 0.620573
v -2.314480 0.613288 0.718141
v -2.314480 1.534193 0.718141
v -2.427059 0.613288 0.620573
v -2.427059 0.663788 0.620573
v -2.427059 0.000000 0.748141
v -2.392763 0.663788 0.718141
v -2.457059 0.613288 0.718141
v -2.427059 0.613288 0.688141
v -2.397059 0.613288 0.718141
v -2.427059 0.613288 0.748141
v -2.457059 0.000000 0.718141
v -2.427059 0.000000 0.688141
v -2.397059 0.000000 0.718141
v -2.370770 0.663788 0.620573
v -2.370770 1.534193 0.718141
v -2.370770 0.613288 0.620573
v -2.714480 0.613288 0.620573
v -2.714480 0.663788 0.620573
v -2.714480 0.663788 0.718141
v -2.714480 0.613288 0.718141
v -3.114480 0.613288 0.620573
v -3.114480 0.663788 0.620573
v -3.114480 0.613288 0.718141
v -3.114480 0.663788 0.718141
v -3.001901 0.613288 0.620573
v -3.001901 0.663788 0.620573
v -3.001901 0.000000 0.748141
v -3.001901 0.663788 0.718141
v -2.971901 0.613288 0.718141
v -3.001901 0.613288 0.688141
v -3.031901 0.613288 0.718141
v -3.001901 0.613288 0.748141
v -2.971901 0.000000 0.718141
v -3.001901 0.000000 0.688141
v -3.031901 0.000000 0.718141
v -3.058190 0.663788 0.620573
v -3.058190 0.663788 0.718141
v -3.058190 0.613288 0.620573
v -2.314480 1.534193 0.961537
v -2.314480 0.613288 0.961537
v -2.392763 0.663788 0.961537
v -2.427059 0.613288 0.961537
v -2.370770 1.534193 0.961537
v -2.714480 0.663788 0.961537
v -2.714480 0.613288 0.961537
v -3.114480 0.663788 0.961537
v -3.114480 0.613288 0.961537
v -3.001901 0.663788 0.961537
v -3.001901 0.613288 0.961537
v -3.058190 0.663788 0.961537
v -2.314480 0.613288 1.302501
v -2.314480 0.663788 1.302501
v -2.314480 0.613288 1.204933
v -2.314480 1.534193 1.204933
v -2.427059 0.613288 1.302501
v -2.427059 0.663788 1.302501
v -2.427059 -0.000000 1.174933
v -2.392763 0.663788 1.204933
v -2.457059 0.613288 1.204933
v -2.427059 0.613288 1.234933
v -2.397059 0.613288 1.204933
v -2.427059 0.613288 1.174933
v -2.457059 -0.000000 1.204933
v -2.427059 -0.000000 1.234933
v -2.397059 -0.000000 1.204933
v -2.370770 0.663788 1.302501
v -2.370770 1.534193 1.204933
v -2.370770 0.613288 1.302501
v -2.714480 0.613288 1.302501
v -2.714480 0.663788 1.302501
v -2.714480 0.663788 1.204933
v -2.714480 0.613288 1.204933
v -3.114480 0.613288 1.302501
v -3.114480 0.663788 1.302501
v -3.114480 0.613288 1.204933
v -3.114480 0.663788 1.204933
v -3.001901 0.613288 1.302501
v -3.001901 0.663788 1.302501
v -3.001901 -0.000000 1.174933
v -3.001901 0.663788 1.204933
v -2.971901 0.613288 1.204933
v -3.001901 0.613288 1.234933
v -3.031901 0.613288 1.204933
v -3.001901 0.613288 1.174933
v -2.971901 -0.000000 1.204933
v -3.001901 -0.000000 1.234933
v -3.031901 -0.000000 1.204933
v -3.058190 0.663788 1.302501
v -3.058190 0.663788 1.204933
v -3.058190 0.613288 1.302501
v -2.427059 0.663788 0.718141
v -2.427059 0.663788 1.204933
v -2.427059 0.663788 0.961537
vn -0.2616 0.2862 -0.9218
vn 0.5774 -0.5774 -0.5774
vn -0.0000 -0.7071 -0.7071
vn 0.7071 -0.7071 -0.0000
vn -0.0000 -0.9045 -0.4264
vn 0.6948 0.0401 -0.7181
vn -0.0000 -0.5773 -0.8165
vn -0.0000 -0.5774 0.8165
vn -0.8165 -0.5774 -0.0000
vn -0.4264 -0.9045 -0.0000
vn -0.0000 -1.0000 -0.0000
vn -0.0000 0.7071 -0.7071
vn 0.4264 -0.9045 -0.0000
vn -0.0000 -0.9045 0.4264
vn 0.8165 -0.5774 -0.0000
vn 0.5834 0.6054 -0.5413
vn -0.6670 0.7413 0.0741
vn -0.0000 0.7071 0.7071
vn -0.2616 0.2862 0.9218
vn -0.5774 -0.5774 -0.5774
vn -0.7071 -0.7071 -0.0000
vn -0.5774 0.5774 -0.5774
vn -0.0000 -0.5774 -0.8165
vn -0.0000 1.0000 -0.0000
vn -0.7071 0.7071 -0.0000
vn -0.6670 0.7413 -0.0741
vn -0.6981 0.7160 -0.0000
vn -0.5754 0.6118 -0.5427
vn 0.7071 0.7071 -0.0000
vn 0.5774 -0.5774 0.5774
vn -0.0000 -0.7071 0.7071
vn 0.6948 0.0401 0.7181
vn -0.5754 0.6118 0.5427
vn 0.5834 0.6054 0.5413
vn -0.5774 -0.5774 0.5774
vn -0.5774 0.5774 0.5774
vt 0.904531 0.039052
vt 0.006434 0.661459
vt 0.970262 0.028995
vt 0.865747 0.781976
vt 0.890737 0.661459
vt 0.966321 0.039052
vt 0.974615 0.028995
vt 0.904531 0.072350
vt 0.986902 0.056744
vt 0.974204 0.078188
vt 0.866452 0.704272
vt 0.966321 0.072350
vt 0.970262 0.042478
vt 0.977500 0.062016
vt 0.006434 0.493336
vt 0.890737 0.493336
vt 0.758002 0.773367
vt 0.731952 0.780294
vt 0.970830 0.079689
vt 0.963772 0.078680
vt 0.669616 0.308497
vt 0.732657 0.702590
vt 0.981854 0.065609
vt 0.961455 0.074689
vt 0.962237 0.065609
vt 0.963772 0.077698
vt 0.973277 0.042478
vt 0.980515 0.062016
vt 0.970830 0.069689
vt 0.974615 0.038885
vt 0.964115 0.078188
vt 0.983217 0.056744
vt 0.970830 0.079689
vt 0.963772 0.078680
vt 0.963576 0.062016
vt 0.981879 0.060337
vt 0.961455 0.074689
vt 0.963772 0.077698
vt 0.970830 0.069689
vt 0.980205 0.074689
vt 0.964115 0.078188
vt 0.100609 0.067039
vt 0.798847 0.781135
vt 0.890737 0.577399
vt 0.864983 0.866031
vt 0.100609 0.308497
vt 0.799553 0.703431
vt 0.974848 0.078188
vt 0.970262 0.035736
vt 0.006434 0.577399
vt 0.006434 0.064108
vt 0.977500 0.096440
vt 0.977475 0.061949
vt 0.890737 0.064108
vt 0.440312 0.769373
vt 0.441017 0.691669
vt 0.981854 0.096440
vt 0.973122 0.061949
vt 0.951353 0.027525
vt 0.962237 0.096440
vt 0.006434 0.661459
vt 0.983397 0.042478
vt 0.882438 0.774931
vt 0.987750 0.042478
vt 0.006434 0.739167
vt 0.986902 0.115112
vt 0.883144 0.697228
vt 0.983397 0.028995
vt 0.977475 0.027525
vt 0.006434 0.493336
vt 0.758002 0.773367
vt 0.890737 0.493336
vt 0.970830 0.079689
vt 0.758708 0.695663
vt 0.963429 0.078188
vt 0.973122 0.031118
vt 0.961455 0.074689
vt 0.951353 0.058356
vt 0.986412 0.028995
vt 0.974461 0.027525
vt 0.963772 0.077698
vt 0.980205 0.074689
vt 0.987750 0.032588
vt 0.964115 0.078188
vt 0.983217 0.115112
vt 0.970830 0.079689
vt 0.981879 0.111519
vt 0.952691 0.061949
vt 0.961455 0.074689
vt 0.963429 0.078188
vt 0.970830 0.069689
vt 0.963772 0.077698
vt 0.964115 0.078188
vt 0.980205 0.074689
vt 0.820218 0.774149
vt 0.890737 0.577399
vt 0.820924 0.696446
vt 0.983397 0.035736
vt 0.006434 0.577399
vt 0.966321 0.155418
vt 0.974204 0.082172
vt 0.986902 0.085894
vt 0.981879 0.056676
vt 0.904531 0.155418
vt 0.669616 0.910858
vt 0.734417 0.508744
vt 0.973097 0.062016
vt 0.981879 0.085894
vt 0.962212 0.096440
vt 0.986902 0.056676
vt 0.100609 0.910858
vt 0.974848 0.082172
vt 0.442777 0.497823
vt 0.962212 0.027525
vt 0.973097 0.096440
vt 0.973097 0.061949
vt 0.962212 0.062016
vt 0.884904 0.503381
vt 0.986902 0.085962
vt 0.951353 0.096507
vt 0.006434 0.933024
vt 0.760468 0.501817
vt 0.981879 0.085962
vt 0.962212 0.061949
vt 0.956376 0.096507
vt 0.973097 0.027525
vt 0.822684 0.502599
vt 0.904531 0.039052
vt 0.006434 0.661459
vt 0.974640 0.042478
vt 0.865747 0.781976
vt 0.890737 0.661459
vt 0.966321 0.039052
vt 0.978994 0.042478
vt 0.904531 0.072350
vt 0.981879 0.027525
vt 0.974204 0.078188
vt 0.866452 0.704272
vt 0.966321 0.072350
vt 0.974640 0.028995
vt 0.977475 0.062016
vt 0.006434 0.493336
vt 0.864220 0.950090
vt 0.890737 0.493336
vt 0.758002 0.773367
vt 0.970830 0.079689
vt 0.963772 0.078680
vt 0.732657 0.702590
vt 0.669616 0.308497
vt 0.973122 0.065609
vt 0.961455 0.074689
vt 0.951353 0.092847
vt 0.963772 0.077698
vt 0.977655 0.028995
vt 0.974461 0.062016
vt 0.970830 0.069689
vt 0.978994 0.032588
vt 0.964115 0.078188
vt 0.985563 0.027525
vt 0.970830 0.079689
vt 0.963772 0.078680
vt 0.952691 0.096440
vt 0.986902 0.031118
vt 0.961455 0.074689
vt 0.963772 0.077698
vt 0.970830 0.069689
vt 0.980205 0.074689
vt 0.964115 0.078188
vt 0.864983 0.866031
vt 0.100609 0.067039
vt 0.798847 0.781135
vt 0.890737 0.577399
vt 0.100609 0.308497
vt 0.799553 0.703431
vt 0.974848 0.078188
vt 0.974640 0.035736
vt 0.006434 0.577399
vt 0.006434 0.064108
vt 0.977475 0.096440
vt 0.977500 0.061949
vt 0.890737 0.064108
vt 0.440312 0.769373
vt 0.441017 0.691669
vt 0.973122 0.096440
vt 0.981854 0.061949
vt 0.962237 0.061949
vt 0.951353 0.062016
vt 0.006434 0.661459
vt 0.983372 0.042478
vt 0.882438 0.774931
vt 0.979019 0.042478
vt 0.006434 0.739167
vt 0.951353 0.125658
vt 0.883144 0.697228
vt 0.983372 0.028995
vt 0.977500 0.027525
vt 0.006434 0.493336
vt 0.758002 0.773367
vt 0.890737 0.493336
vt 0.970830 0.079689
vt 0.758708 0.695663
vt 0.963429 0.078188
vt 0.981854 0.031118
vt 0.961455 0.074689
vt 0.962237 0.031118
vt 0.970830 0.069689
vt 0.980357 0.028995
vt 0.980515 0.027525
vt 0.963772 0.077698
vt 0.979019 0.032588
vt 0.980205 0.074689
vt 0.955037 0.125658
vt 0.970830 0.079689
vt 0.956376 0.122065
vt 0.963576 0.027525
vt 0.961455 0.074689
vt 0.963429 0.078188
vt 0.970830 0.069689
vt 0.963772 0.077698
vt 0.980205 0.074689
vt 0.820218 0.774149
vt 0.890737 0.577399
vt 0.820924 0.696446
vt 0.983372 0.035736
vt 0.006434 0.577399
vt 0.696244 0.702132
vt 0.724841 0.695238
vt 0.724841 0.695238
vt 0.696244 0.702132
vt 0.698004 0.508286
vt 0.726601 0.501391
s 1
g Chair_Material.004
usemtl Material.004
f 16/44/1 1/2/2 18/50/3
f 18/49/3 3/7/4 10/27/5
f 2/6/6 3/8/4 1/1/2
f 14/39/7 7/19/8 13/37/9
f 5/14/3 9/23/10 22/57/11
f 20/54/12 5/15/3 19/51/3
f 11/31/13 14/38/7 10/26/5
f 9/24/10 7/19/8 12/33/14
f 12/34/14 15/41/15 11/31/13
f 10/29/5 13/37/9 9/24/10
f 16/43/1 4/11/16 2/4/6
f 6/16/12 18/50/3 5/15/3
f 60/148/17 58/143/18 68/169/19
f 23/61/20 38/96/12 40/99/3
f 32/79/5 25/64/21 40/98/3
f 25/65/21 24/63/22 23/61/20
f 35/89/15 37/94/9 36/91/23
f 39/97/24 28/71/12 38/95/12
f 22/58/11 32/80/5 27/69/3
f 27/70/3 20/54/12 19/51/3
f 36/92/23 33/84/10 32/81/5
f 29/73/8 31/77/13 34/86/14
f 37/94/9 34/86/14 33/82/10
f 35/90/15 32/81/5 31/75/13
f 26/67/25 38/95/12 24/63/22
f 40/99/3 28/72/12 27/70/3
f 30/74/24 20/55/12 28/71/12
f 52/127/24 30/74/24 39/97/24
f 51/123/11 25/66/21 33/85/10
f 49/121/21 26/67/25 25/65/21
f 48/118/25 39/97/24 26/67/25
f 47/114/11 34/88/14 31/78/13
f 50/122/24 21/56/24 30/74/24
f 9/25/10 44/107/11 47/115/11
f 8/21/26 45/111/27 17/46/28
f 93/226/24 43/106/27 8/22/26
f 11/32/13 42/102/4 44/108/11
f 4/12/16 42/104/4 3/8/4
f 17/48/28 41/101/29 4/10/16
f 53/129/30 68/172/19 70/177/31
f 62/154/14 55/134/4 70/176/31
f 55/135/4 54/133/32 53/128/30
f 59/146/23 66/166/8 65/164/9
f 69/173/33 60/149/17 68/170/19
f 74/184/11 62/155/14 57/141/31
f 57/142/31 72/181/18 71/178/31
f 66/165/8 63/158/13 62/153/14
f 59/146/23 61/151/10 64/160/5
f 67/168/15 64/161/5 63/158/13
f 65/164/9 62/156/14 61/151/10
f 56/138/34 68/171/19 54/131/32
f 70/177/31 58/144/18 57/142/31
f 90/222/18 75/188/35 92/225/31
f 92/224/31 77/191/21 84/207/14
f 76/190/36 77/192/21 75/188/35
f 87/216/15 89/220/9 81/200/23
f 80/198/18 91/223/24 90/221/18
f 79/196/31 83/203/13 74/185/11
f 72/181/18 79/197/31 71/178/31
f 85/211/10 88/218/8 84/206/14
f 83/204/13 81/200/23 86/213/5
f 86/213/5 89/220/9 85/211/10
f 84/209/14 87/217/15 83/202/13
f 90/221/18 78/194/25 76/190/36
f 80/199/18 92/225/31 79/197/31
f 72/182/18 82/201/24 80/198/18
f 82/201/24 52/127/24 91/223/24
f 85/212/10 49/120/21 51/125/11
f 78/194/25 49/121/21 77/192/21
f 91/223/24 48/118/25 78/194/25
f 83/205/13 51/126/11 47/116/11
f 73/183/24 50/122/24 82/201/24
f 47/117/11 64/162/5 61/152/10
f 45/111/27 60/149/17 69/173/33
f 43/106/27 94/229/24 60/148/17
f 44/110/11 55/136/4 63/159/13
f 42/104/4 56/139/34 55/135/4
f 41/101/29 69/175/33 56/137/34
f 17/46/28 16/42/1 8/21/26
f 73/183/24 58/145/18 94/228/24
f 6/17/12 21/56/24 93/227/24
f 95/231/24 73/183/24 94/228/24
f 93/227/24 46/113/24 95/231/24
f 8/22/26 6/18/12 93/226/24
f 16/44/1 2/5/6 1/2/2
f 10/27/5 5/13/3 18/49/3
f 18/49/3 1/3/2 3/7/4
f 3/7/4 11/30/13 10/27/5
f 2/6/6 4/12/16 3/8/4
f 14/39/7 15/40/15 7/19/8
f 22/57/11 19/52/3 5/14/3
f 5/14/3 10/28/5 9/23/10
f 20/54/12 6/16/12 5/15/3
f 11/31/13 15/41/15 14/38/7
f 9/24/10 13/37/9 7/19/8
f 12/34/14 7/20/8 15/41/15
f 10/29/5 14/39/7 13/37/9
f 16/43/1 17/47/28 4/11/16
f 6/16/12 16/44/1 18/50/3
f 60/148/17 94/229/24 58/143/18
f 23/61/20 24/63/22 38/96/12
f 40/98/3 27/68/3 32/79/5
f 32/79/5 33/83/10 25/64/21
f 25/64/21 23/62/20 40/98/3
f 25/65/21 26/67/25 24/63/22
f 35/89/15 29/73/8 37/94/9
f 39/97/24 30/74/24 28/71/12
f 27/69/3 19/53/3 22/58/11
f 22/58/11 31/76/13 32/80/5
f 27/70/3 28/72/12 20/54/12
f 36/92/23 37/93/9 33/84/10
f 29/73/8 35/89/15 31/77/13
f 37/94/9 29/73/8 34/86/14
f 35/90/15 36/92/23 32/81/5
f 26/67/25 39/97/24 38/95/12
f 40/99/3 38/96/12 28/72/12
f 30/74/24 21/56/24 20/55/12
f 52/127/24 50/122/24 30/74/24
f 33/85/10 34/87/14 51/123/11
f 51/123/11 49/119/21 25/66/21
f 49/121/21 48/118/25 26/67/25
f 48/118/25 52/127/24 39/97/24
f 31/78/13 22/59/11 47/114/11
f 47/114/11 51/124/11 34/88/14
f 50/122/24 46/113/24 21/56/24
f 47/115/11 22/60/11 9/25/10
f 9/25/10 12/35/14 44/107/11
f 8/21/26 43/105/27 45/111/27
f 93/226/24 95/230/24 43/106/27
f 44/108/11 12/36/14 11/32/13
f 11/32/13 3/9/4 42/102/4
f 4/12/16 41/100/29 42/104/4
f 17/48/28 45/112/27 41/101/29
f 53/129/30 54/132/32 68/172/19
f 70/176/31 57/140/31 62/154/14
f 62/154/14 63/157/13 55/134/4
f 55/134/4 53/130/30 70/176/31
f 55/135/4 56/139/34 54/133/32
f 59/146/23 67/167/15 66/166/8
f 57/141/31 71/179/31 74/184/11
f 74/184/11 61/150/10 62/155/14
f 57/142/31 58/144/18 72/181/18
f 66/165/8 67/168/15 63/158/13
f 59/146/23 65/164/9 61/151/10
f 67/168/15 59/147/23 64/161/5
f 65/164/9 66/166/8 62/156/14
f 56/138/34 69/174/33 68/171/19
f 70/177/31 68/172/19 58/144/18
f 90/222/18 76/190/36 75/188/35
f 84/207/14 79/195/31 92/224/31
f 92/224/31 75/189/35 77/191/21
f 77/191/21 85/210/10 84/207/14
f 76/190/36 78/194/25 77/192/21
f 87/216/15 88/218/8 89/220/9
f 80/198/18 82/201/24 91/223/24
f 74/185/11 71/180/31 79/196/31
f 79/196/31 84/208/14 83/203/13
f 72/181/18 80/199/18 79/197/31
f 85/211/10 89/220/9 88/218/8
f 83/204/13 87/216/15 81/200/23
f 86/213/5 81/200/23 89/220/9
f 84/209/14 88/219/8 87/217/15
f 90/221/18 91/223/24 78/194/25
f 80/199/18 90/222/18 92/225/31
f 72/182/18 73/183/24 82/201/24
f 82/201/24 50/122/24 52/127/24
f 51/125/11 86/214/5 85/212/10
f 85/212/10 77/193/21 49/120/21
f 78/194/25 48/118/25 49/121/21
f 91/223/24 52/127/24 48/118/25
f 47/116/11 74/186/11 83/205/13
f 83/205/13 86/215/5 51/126/11
f 73/183/24 46/113/24 50/122/24
f 61/152/10 74/187/11 47/117/11
f 47/117/11 44/109/11 64/162/5
f 45/111/27 43/105/27 60/149/17
f 43/106/27 95/230/24 94/229/24
f 63/159/13 64/163/5 44/110/11
f 44/110/11 42/103/4 55/136/4
f 42/104/4 41/100/29 56/139/34
f 41/101/29 45/112/27 69/175/33
f 73/183/24 72/182/18 58/145/18
f 6/17/12 20/55/12 21/56/24
f 95/231/24 46/113/24 73/183/24
f 93/227/24 21/56/24 46/113/24
f 8/22/26 16/45/1 6/18/12
