# Blender 3.4.1
# www.blender.org
mtllib roof.mtl
o Roof
v -3.536078 2.496557 -4.989919
v 3.544116 2.496557 -4.989919
v -3.536079 2.496549 5.000001
v 3.544115 2.496549 5.000001
v -3.536078 2.547485 -4.989919
v 3.544116 2.547485 -4.989919
v -3.536079 2.547477 5.000001
v 3.544115 2.547477 5.000001
v 0.004019 2.496557 -4.989919
v 0.004018 2.496549 5.000001
v 0.004019 2.547485 -4.989919
v 0.004018 2.547477 5.000001
v 3.544116 2.496553 0.005041
v -3.536078 2.496553 0.005041
v 3.544116 2.547481 0.005041
v -3.536078 2.547481 0.005041
v 0.004019 2.547481 0.005041
v 0.004019 2.496553 0.005042
v 0.008030 5.110535 0.010075
v -3.536078 2.496557 -4.989919
v 3.544116 2.496557 -4.989919
v -3.536079 2.496549 5.000001
v 3.544115 2.496549 5.000001
v -3.536078 2.547485 -4.989919
v 3.544116 2.547485 -4.989919
v -3.536079 2.547477 5.000001
v 3.544115 2.547477 5.000001
v 0.004019 2.496557 -4.989919
v 0.004018 2.496549 5.000001
v 0.004019 2.547485 -4.989919
v 0.004018 2.547477 5.000001
v 3.544116 2.496553 0.005041
v -3.536078 2.496553 0.005041
v 3.544116 2.547481 0.005041
v -3.536078 2.547481 0.005041
v 0.004019 2.547481 0.005041
v 0.004019 2.496553 0.005042
v 0.008030 5.110535 0.010075
vn -0.0000 1.0000 -0.0000
vn -0.0000 -1.0000 -0.0000
vn 1.0000 -0.0000 -0.0000
vn -1.0000 -0.0000 -0.0000
vn -0.0000 -0.0000 -1.0000
vn -0.0000 -0.0000 1.0000
vn -0.5860 0.8103 -0.0000
vn -0.0000 0.8895 0.4569
vn 0.5869 0.8097 -0.0000
vn -0.0000 0.8899 -0.4562
vn 0.5860 -0.8103 -0.0000
vn -0.0000 -0.8895 -0.4569
vn -0.5869 -0.8097 -0.0000
vn -0.0000 -0.8899 0.4562
vt 0.377251 1.000000
vt 0.411378 0.827631
vt 0.795304 0.048232
vt 0.377251 0.250000
vt 0.354236 0.006327
vt 0.377251 0.750000
vt 0.377251 0.500000
vt 0.377251 1.000000
vt 0.407708 0.825945
vt 0.377251 0.250000
vt 0.794611 0.052649
vt 0.349519 0.006909
vt 0.377251 0.750000
vt 0.795304 0.929494
vt 0.377251 0.500000
vt 0.216464 0.999875
vt 0.488325 0.000125
vt 0.377251 0.625000
vt 0.377251 0.625000
vt 0.213986 0.997071
vt 0.487633 0.004541
vt 0.377251 0.625000
vt 0.011259 0.000125
vt 0.488415 0.978171
vt 0.377251 0.625000
vt 0.377251 0.375000
vt 0.411378 0.468992
vt 0.377251 0.875000
vt 0.794958 0.491071
vt 0.377251 0.375000
vt 0.406659 0.469288
vt 0.377251 0.875000
vt 0.377251 0.625000
vt 0.000000 0.000000
vt 0.377251 0.625000
vt 0.411628 0.491816
vt 0.000125 0.536130
vt 0.000000 0.000000
vt 0.778100 0.518892
vt 0.448088 0.462867
vt 0.724882 0.036912
vt 0.425895 0.034007
vt 0.007584 0.016764
vt 0.000131 0.999869
vt 0.777943 0.521523
vt 0.780923 0.518892
vt 0.370471 0.000148
vt 0.446340 0.464581
vt 0.342023 0.999869
vt 0.030568 0.517209
vt 0.726665 0.034991
vt 0.000131 0.517470
vt 0.342023 0.517470
vt 0.393397 0.500535
vt 0.423732 0.032236
vt 0.595490 0.508196
vt 0.569247 0.002785
vt 0.188647 0.000131
vt 0.595087 0.510582
vt 0.171077 0.999869
vt 0.212367 0.517209
vt 0.569156 0.000131
vt 0.171077 0.517470
vt 0.403772 0.269522
vt 0.778058 0.242367
vt 0.400896 0.249482
vt 0.342023 0.758669
vt 0.401157 0.269732
vt 0.000131 0.267866
vt 0.780923 0.241992
vt 0.000131 0.758669
vt 0.000000 0.000000
vt 0.171077 0.758669
vt 0.587834 0.255895
vt 0.200677 0.258884
vt 0.000000 0.000000
s 0
g Roof_Material.001
usemtl Material.001
f 9/18/1 14/28/1 18/35/1
f 17/33/2 5/8/2 11/22/2
f 16/31/3 3/5/3 14/27/3
f 15/30/4 2/4/4 13/26/4
f 12/25/5 4/7/5 10/19/5
f 11/20/6 1/2/6 9/16/6
f 6/11/6 9/17/6 2/3/6
f 7/13/5 10/19/5 3/6/5
f 15/30/2 11/22/2 6/10/2
f 13/26/1 9/18/1 18/35/1
f 4/7/1 18/35/1 10/19/1
f 12/25/2 15/30/2 8/15/2
f 8/15/4 13/26/4 4/7/4
f 5/9/3 14/27/3 1/2/3
f 7/13/2 17/33/2 12/25/2
f 18/35/1 3/6/1 10/19/1
f 7/12/7 19/37/7 16/31/7
f 19/37/8 7/12/8 12/23/8
f 19/36/8 12/24/8 8/14/8
f 15/29/9 19/36/9 8/14/9
f 19/36/9 15/29/9 6/11/9
f 19/36/10 6/11/10 11/21/10
f 11/20/10 5/9/10 19/37/10
f 5/9/7 16/31/7 19/37/7
f 33/65/2 28/56/2 37/74/2
f 36/73/1 24/44/1 35/71/1
f 22/41/4 35/70/4 33/65/4
f 21/40/3 34/68/3 32/64/3
f 23/42/6 31/62/6 29/57/6
f 20/39/5 30/59/5 28/56/5
f 28/56/5 25/48/5 21/40/5
f 29/57/6 26/51/6 22/41/6
f 34/67/1 30/60/1 36/73/1
f 32/64/2 28/56/2 21/40/2
f 23/42/2 37/74/2 32/64/2
f 34/67/1 31/63/1 27/53/1
f 32/64/3 27/55/3 23/42/3
f 33/65/4 24/46/4 20/39/4
f 36/73/1 26/52/1 31/63/1
f 22/41/2 37/74/2 29/57/2
f 26/50/11 35/69/11 38/75/11
f 38/75/12 31/61/12 26/50/12
f 38/75/12 27/54/12 31/61/12
f 34/66/13 27/54/13 38/75/13
f 38/75/13 25/47/13 34/66/13
f 38/75/14 30/58/14 25/47/14
f 30/58/14 38/75/14 24/43/14
f 24/43/11 38/75/11 35/69/11
f 17/34/6 38/76/6 36/72/6
f 9/18/1 1/1/1 14/28/1
f 17/33/2 16/32/2 5/8/2
f 16/31/3 7/12/3 3/5/3
f 15/30/4 6/10/4 2/4/4
f 12/25/5 8/15/5 4/7/5
f 11/20/6 5/9/6 1/2/6
f 6/11/6 11/21/6 9/17/6
f 7/13/5 12/25/5 10/19/5
f 15/30/2 17/33/2 11/22/2
f 13/26/1 2/4/1 9/18/1
f 4/7/1 13/26/1 18/35/1
f 12/25/2 17/33/2 15/30/2
f 8/15/4 15/30/4 13/26/4
f 5/9/3 16/31/3 14/27/3
f 7/13/2 16/32/2 17/33/2
f 18/35/1 14/28/1 3/6/1
f 33/65/2 20/39/2 28/56/2
f 36/73/1 30/60/1 24/44/1
f 22/41/4 26/51/4 35/70/4
f 21/40/3 25/48/3 34/68/3
f 23/42/6 27/55/6 31/62/6
f 20/39/5 24/45/5 30/59/5
f 28/56/5 30/59/5 25/48/5
f 29/57/6 31/62/6 26/51/6
f 34/67/1 25/49/1 30/60/1
f 32/64/2 37/74/2 28/56/2
f 23/42/2 29/57/2 37/74/2
f 34/67/1 36/73/1 31/63/1
f 32/64/3 34/68/3 27/55/3
f 33/65/4 35/70/4 24/46/4
f 36/73/1 35/71/1 26/52/1
f 22/41/2 33/65/2 37/74/2
f 17/34/6 19/38/6 38/76/6
