# Blender 3.4.1
# www.blender.org
mtllib walls.mtl
o walls
v -3.540571 2.494998 4.990001
v -3.540571 2.495002 -4.990000
v 3.540571 2.494998 4.990001
v 3.540571 2.495002 -4.990000
v 3.140971 2.495002 -4.990000
v 3.140971 2.494998 4.990001
v -3.140971 2.494998 4.990001
v -3.140971 2.495002 -4.990000
v -3.540571 2.494998 4.590800
v -3.540571 2.495002 -4.590798
v 3.540571 2.495002 -4.590798
v 3.540571 2.494998 4.590800
v 3.596400 0.000002 -4.590800
v 3.596400 -0.000002 4.590800
v -3.596400 0.000002 -4.590800
v -3.596400 -0.000002 4.590800
v 3.596400 2.295402 -4.590798
v 3.596400 2.295398 4.590800
v -3.596400 2.295402 -4.590798
v -3.596400 2.295398 4.590800
v -0.503611 2.495002 -4.990000
v -0.503611 2.494998 4.990001
v -0.433607 0.000002 -4.590800
v -0.959040 -0.000002 4.590800
v -0.959040 2.295402 -4.590798
v -0.959040 2.295398 4.590800
v 0.503611 2.495002 -4.990000
v 0.503611 2.494998 4.990001
v 0.487488 0.000002 -4.590800
v 0.959040 -0.000002 4.590800
v 0.959040 2.295402 -4.590798
v 0.959040 2.295398 4.590800
v -3.996000 1.966062 -4.990000
v -3.996000 1.966062 -4.590798
v -3.596400 1.966058 4.590800
v 3.596400 1.966058 4.590800
v -3.596400 1.966062 -4.590798
v 3.596400 1.966062 -4.590798
v -0.433607 1.966062 -4.590798
v -0.959040 1.966058 4.590800
v 0.959040 1.966058 4.590800
v 0.487488 1.966062 -4.590798
v -3.540571 2.495000 1.497000
v 3.540571 2.495000 1.497000
v 3.596400 -0.000000 1.497000
v -3.596400 -0.000000 1.497000
v 3.596400 2.295400 1.497000
v -3.596400 2.295400 1.497000
v 3.596400 1.966060 1.497000
v -3.596400 1.966059 3.990757
v -3.540571 2.495000 -0.499000
v -3.996000 1.966060 -1.841487
v 3.596400 1.966060 -0.499000
v 3.540571 2.495000 -0.499000
v 3.596400 0.000000 -0.499000
v -3.596400 0.000000 -0.499000
v 3.596400 2.295400 -0.499000
v -3.596400 2.295400 -0.499000
v -3.596400 1.966060 -1.841487
v 3.596400 1.013342 4.590800
v 3.596400 1.013345 -4.590800
v -3.596400 1.013342 4.590800
v -3.596400 1.013345 -4.590800
v -0.433607 1.013345 -4.590800
v -0.959040 1.013342 4.590800
v 0.959040 1.013342 4.590800
v 0.487488 1.013345 -4.590800
v -3.596400 1.013343 3.990757
v 3.596400 1.013343 1.497000
v 3.596400 1.013343 -0.499000
v -3.596400 1.013344 -1.841488
v 2.041944 0.000002 -4.590800
v 2.277720 2.295402 -4.590798
v 1.822291 2.494998 4.990001
v 2.277720 1.966058 4.590800
v 2.277720 -0.000002 4.590800
v 1.822291 2.495002 -4.990000
v 2.277720 2.295398 4.590800
v 2.041944 1.013345 -4.590800
v 2.041944 1.966062 -4.590798
v 2.277720 1.013342 4.590800
v 1.264716 0.000002 -4.590800
v 1.618380 2.295402 -4.590798
v 1.162951 2.494998 4.990001
v 1.618380 1.966058 4.590800
v 1.618380 -0.000002 4.590800
v 1.162951 2.495002 -4.990000
v 1.618380 2.295398 4.590800
v 1.264716 1.013345 -4.590800
v 1.264716 1.966062 -4.590798
v 1.618380 1.013342 4.590800
v -2.015003 0.000002 -4.590800
v -2.277720 1.966058 4.590800
v -1.822291 2.494998 4.990001
v -2.277720 -0.000002 4.590800
v -1.822291 2.495002 -4.990000
v -2.277720 2.295402 -4.590798
v -2.015003 1.966062 -4.590798
v -2.277720 1.013342 4.590800
v -2.277720 2.295398 4.590800
v -2.015003 1.013345 -4.590800
v -2.805701 0.000002 -4.590800
v -2.937060 1.966058 4.590800
v -2.481631 2.494998 4.990001
v -2.937060 -0.000002 4.590800
v -2.481631 2.495002 -4.990000
v -2.937060 2.295402 -4.590798
v -2.805701 1.966062 -4.590798
v -2.937060 1.013342 4.590800
v -2.937060 2.295398 4.590800
v -2.805701 1.013345 -4.590800
v -1.224305 0.000002 -4.590800
v -1.618380 1.966058 4.590800
v -1.162951 2.494998 4.990001
v -1.618380 -0.000002 4.590800
v -1.162951 2.495002 -4.990000
v -1.618380 2.295402 -4.590798
v -1.224305 1.966062 -4.590798
v -1.618380 1.013342 4.590800
v -1.618380 2.295398 4.590800
v -1.224305 1.013345 -4.590800
v 2.819172 0.000002 -4.590800
v 2.937060 2.295402 -4.590798
v 2.481631 2.494998 4.990001
v 2.937060 1.966058 4.590800
v 2.937060 -0.000002 4.590800
v 2.481631 2.495002 -4.990000
v 2.937060 2.295398 4.590800
v 2.819172 1.013345 -4.590800
v 2.819172 1.966062 -4.590798
v 2.937060 1.013342 4.590800
v 3.596400 2.295398 4.590800
v 2.937060 1.966058 4.590800
v 3.596400 2.295402 -4.590798
v 3.596400 1.966062 -4.590798
v 3.596400 1.966060 1.497000
v 3.596400 1.966060 -0.499000
v 3.596400 2.295400 -0.499000
v 3.596400 1.013342 4.590800
v 3.596400 1.013343 1.497000
v 3.596400 1.013345 -4.590800
v 3.596400 1.013343 -0.499000
v 2.937060 2.295402 -4.590798
v -3.540571 2.494998 4.590800
v 2.819172 1.013345 -4.590800
v 2.819172 1.966062 -4.590798
v 3.596400 1.966058 4.590800
v 2.937060 2.295398 4.590800
v 3.596400 2.295400 1.497000
v -3.540571 2.495000 1.497000
v -3.540571 2.495000 -0.499000
v -3.596400 1.966059 3.990757
v -3.596400 1.966060 -1.841487
v -3.596400 1.013343 3.990757
v -3.540571 2.495002 -4.590798
v 2.277720 2.295398 4.590800
v 1.618380 1.966058 4.590800
v 1.618380 2.295398 4.590800
v -2.015003 0.000002 -4.590800
v -2.015003 1.013345 -4.590800
v -2.805701 0.000002 -4.590800
v -2.937060 2.295402 -4.590798
v -2.805701 1.966062 -4.590798
v -2.805701 1.013345 -4.590800
v -1.224305 0.000002 -4.590800
v 2.819172 0.000002 -4.590800
v -3.596400 2.295402 -4.590798
v -3.596400 1.966062 -4.590798
v 1.618380 -0.000002 4.590800
v 1.618380 1.013342 4.590800
v -3.596400 2.295400 -0.499000
v -3.596400 -0.000000 1.497000
v -3.596400 0.000000 -0.499000
v -2.277720 1.966058 4.590800
v -2.277720 1.013342 4.590800
v -2.277720 2.295398 4.590800
v -2.937060 1.966058 4.590800
v -2.937060 1.013342 4.590800
v -2.937060 2.295398 4.590800
v -1.618380 1.966058 4.590800
v -1.618380 -0.000002 4.590800
v -1.618380 1.013342 4.590800
v -1.618380 2.295398 4.590800
v 0.959040 2.295402 -4.590798
v 1.618380 2.295402 -4.590798
v -0.433607 1.966062 -4.590798
v -1.224305 1.966062 -4.590798
v -3.596400 2.295398 4.590800
v -3.596400 1.966058 4.590800
v -3.596400 2.295400 1.497000
v 3.540571 2.495000 1.497000
v 3.540571 2.495000 -0.499000
v -0.959040 2.295398 4.590800
v -3.596400 1.013345 -4.590800
v -3.596400 1.013344 -1.841488
v 2.041944 1.966062 -4.590798
v -1.224305 1.013345 -4.590800
v 2.041944 0.000002 -4.590800
v 2.041944 1.013345 -4.590800
v 3.540571 2.494998 4.590800
v 3.596400 -0.000000 1.497000
v 3.596400 0.000000 -0.499000
v 0.959040 -0.000002 4.590800
v 0.959040 1.013342 4.590800
v 2.937060 1.013342 4.590800
v 1.264716 0.000002 -4.590800
v 1.264716 1.013345 -4.590800
v -2.937060 -0.000002 4.590800
v 0.487488 1.966062 -4.590798
v 3.540571 2.495002 -4.590798
v -3.596400 1.013342 4.590800
v 2.277720 2.295402 -4.590798
v 1.264716 1.966062 -4.590798
v -2.277720 -0.000002 4.590800
v 0.959040 2.295398 4.590800
v -0.959040 1.966058 4.590800
v 0.959040 1.966058 4.590800
v -1.618380 2.295402 -4.590798
v 2.277720 1.013342 4.590800
v 0.487488 0.000002 -4.590800
v 0.487488 1.013345 -4.590800
v -0.433607 1.013345 -4.590800
v -0.959040 1.013342 4.590800
v 3.596400 -0.000002 4.590800
v 2.937060 -0.000002 4.590800
v 3.596400 0.000002 -4.590800
v -0.433607 0.000002 -4.590800
v -0.959040 -0.000002 4.590800
v -2.277720 2.295402 -4.590798
v -2.015003 1.966062 -4.590798
v -0.959040 2.295402 -4.590798
v -3.596400 0.000002 -4.590800
v -3.596400 -0.000002 4.590800
v 2.277720 -0.000002 4.590800
v 2.277720 1.966058 4.590800
vn -0.0000 -0.0000 -1.0000
vn 1.0000 -0.0000 -0.0000
vn -1.0000 -0.0000 -0.0000
vn -0.0000 -0.0000 1.0000
vn 0.9630 -0.2694 -0.0000
vn -0.9630 -0.2694 -0.0000
vn 0.7068 -0.7075 -0.0000
vn -0.7068 -0.7075 -0.0000
vt 0.569381 0.743045
vt 0.151358 0.043194
vt 0.555147 0.675793
vt 0.715698 0.733386
vt 0.151358 0.980642
vt 0.729932 0.733386
vt 0.137123 0.980642
vt 0.137123 0.359073
vt 0.137123 0.562866
vt 0.151358 0.562866
vt 0.095946 0.043194
vt 0.513969 0.743045
vt 0.095946 0.359073
vt 0.095946 0.980642
vt 0.771109 0.733386
vt 0.095946 0.562866
vt 0.715698 0.666135
vt 0.313837 0.019048
vt 0.771109 0.654110
vt 0.729932 0.654110
vt 0.137123 0.043194
vt 0.555147 0.743045
vt 0.569381 0.675793
vt 0.151358 0.359073
vt 0.313837 0.334928
vt 0.313837 0.538720
vt 0.337029 0.080313
vt 0.337029 0.675789
vt 0.378206 0.080313
vt 0.313837 0.956496
vt 0.569381 0.608541
vt 0.555147 0.541290
vt 0.569381 0.541290
vt 0.814907 0.161032
vt 0.771109 0.161032
vt 0.814907 0.080382
vt 0.715698 0.066983
vt 0.729932 0.080382
vt 0.771109 0.080382
vt 0.814907 0.241682
vt 0.814906 0.654110
vt 0.715698 -0.000268
vt 0.322794 0.956496
vt 0.337029 0.956496
vt 0.729932 -0.000268
vt 0.470171 0.541290
vt 0.513969 0.541290
vt 0.322794 0.538720
vt 0.422004 0.334927
vt 0.422004 0.538720
vt 0.555146 0.143893
vt 0.513969 0.143893
vt 0.569381 0.143893
vt 0.555146 0.076642
vt 0.513969 0.076642
vt 0.569381 0.076642
vt 0.555146 0.211145
vt 0.470171 0.211145
vt 0.513969 0.211145
vt 0.569381 0.211145
vt 0.715698 0.464380
vt 0.715698 0.531631
vt 0.729932 0.322332
vt 0.729932 0.241682
vt 0.569381 0.009390
vt 0.322794 0.019048
vt 0.555146 0.009390
vt 0.337029 0.019048
vt 0.322794 0.334928
vt 0.160315 0.359073
vt 0.160315 0.562866
vt 0.569381 0.278397
vt 0.378206 0.956496
vt 0.771109 -0.000268
vt 0.378206 0.675789
vt 0.729932 0.574834
vt 0.771109 0.241682
vt 0.814906 0.574834
vt 0.771109 0.574834
vt 0.160315 0.043194
vt 0.052149 0.359073
vt 0.052149 0.562866
vt 0.470171 0.474038
vt 0.513969 0.474038
vt 0.513969 0.675793
vt 0.814906 0.495558
vt 0.771109 0.495558
vt 0.470171 0.076642
vt 0.729932 0.416282
vt 0.160315 0.980642
vt 0.378206 0.019048
vt 0.513969 0.009390
vt 0.715698 0.598883
vt 0.729932 0.495558
vt 0.470171 0.143893
vt 0.569381 0.474038
vt 0.555146 0.278397
vt 0.555147 0.474038
vt 0.715698 0.201487
vt 0.513969 0.608541
vt 0.814906 0.416282
vt 0.771109 0.416282
vt 0.771109 0.322332
vt 0.513969 0.278397
vt 0.470171 0.743045
vt 0.052149 0.043194
vt 0.470171 0.675793
vt 0.052149 0.980642
vt 0.814907 0.733386
vt 0.814907 0.322332
vt 0.470171 0.278397
vt 0.715698 0.134235
vt 0.729932 0.161032
vt 0.715698 0.268739
vt 0.814907 -0.000268
vt 0.422004 0.956496
vt 0.422004 0.019048
vt 0.470171 0.009390
vt 0.470171 0.608541
vt 0.555147 0.608541
s 0
f 189/67/1 179/56/1 177/54/1
f 153/28/2 167/43/2 171/48/2
f 147/21/3 149/24/3 136/8/3
f 135/6/4 143/17/4 146/20/4
f 187/64/4 231/114/4 218/99/4
f 216/97/1 215/96/1 217/98/1
f 217/98/1 158/33/1 157/32/1
f 186/63/4 184/61/4 231/114/4
f 204/84/1 157/32/1 170/47/1
f 223/104/1 217/98/1 204/84/1
f 222/103/4 187/64/4 197/77/4
f 141/15/4 146/20/4 145/19/4
f 139/11/3 136/8/3 140/13/3
f 194/73/2 153/28/2 195/75/2
f 211/92/1 177/54/1 178/55/1
f 154/29/2 189/68/2 211/91/2
f 140/13/3 137/9/3 142/16/3
f 136/8/3 138/10/3 137/9/3
f 152/27/2 188/66/2 189/68/2
f 137/9/3 134/5/3 135/7/3
f 142/16/3 135/7/3 141/14/3
f 153/28/2 190/69/2 152/27/2
f 172/49/2 195/75/2 154/29/2
f 202/82/3 141/14/3 226/108/3
f 201/81/3 142/16/3 202/82/3
f 233/117/2 154/29/2 211/91/2
f 233/118/1 178/55/1 208/88/1
f 232/116/2 195/75/2 173/50/2
f 224/106/3 140/13/3 201/81/3
f 226/109/4 145/19/4 166/41/4
f 227/110/4 197/77/4 165/40/4
f 228/111/1 204/84/1 203/83/1
f 203/83/1 170/47/1 169/46/1
f 234/119/1 205/85/1 225/107/1
f 198/78/4 207/87/4 206/86/4
f 219/100/1 133/3/1 205/85/1
f 235/120/1 148/23/1 133/3/1
f 196/76/4 185/62/4 213/94/4
f 213/94/4 184/61/4 209/89/4
f 207/87/4 209/89/4 221/102/4
f 206/86/4 221/102/4 220/101/4
f 169/46/1 219/100/1 234/119/1
f 170/47/1 235/120/1 219/100/1
f 157/32/1 156/31/1 235/120/1
f 159/34/4 164/39/4 161/36/4
f 214/95/1 182/59/1 181/58/1
f 175/52/1 180/57/1 182/59/1
f 160/35/4 163/38/4 164/39/4
f 163/38/4 229/112/4 162/37/4
f 174/51/1 183/60/1 180/57/1
f 168/45/4 162/37/4 167/42/4
f 164/39/4 168/45/4 194/74/4
f 161/36/4 194/74/4 232/115/4
f 208/88/1 175/52/1 214/95/1
f 178/55/1 174/51/1 175/52/1
f 177/54/1 176/53/1 174/51/1
f 180/57/1 193/72/1 216/97/1
f 182/59/1 216/97/1 223/104/1
f 181/58/1 223/104/1 228/111/1
f 165/40/4 160/35/4 159/34/4
f 230/113/4 218/99/4 229/112/4
f 133/3/1 132/1/1 147/22/1
f 205/85/1 147/22/1 139/12/1
f 225/107/1 139/12/1 224/105/1
f 166/41/4 199/79/4 198/78/4
f 145/19/4 196/76/4 199/79/4
f 146/20/4 212/93/4 196/76/4
f 189/67/1 188/65/1 179/56/1
f 153/28/2 168/44/2 167/43/2
f 147/21/3 132/2/3 149/24/3
f 135/6/4 134/4/4 143/17/4
f 187/64/4 186/63/4 231/114/4
f 216/97/1 193/72/1 215/96/1
f 217/98/1 215/96/1 158/33/1
f 186/63/4 209/89/4 184/61/4
f 204/84/1 217/98/1 157/32/1
f 223/104/1 216/97/1 217/98/1
f 222/103/4 186/63/4 187/64/4
f 141/15/4 135/6/4 146/20/4
f 139/11/3 147/21/3 136/8/3
f 194/73/2 168/44/2 153/28/2
f 211/92/1 189/67/1 177/54/1
f 154/29/2 152/27/2 189/68/2
f 140/13/3 136/8/3 137/9/3
f 136/8/3 149/24/3 138/10/3
f 152/27/2 190/69/2 188/66/2
f 137/9/3 138/10/3 134/5/3
f 142/16/3 137/9/3 135/7/3
f 153/28/2 171/48/2 190/69/2
f 172/49/2 173/50/2 195/75/2
f 202/82/3 142/16/3 141/14/3
f 201/81/3 140/13/3 142/16/3
f 233/117/2 172/49/2 154/29/2
f 233/118/1 211/92/1 178/55/1
f 232/116/2 194/73/2 195/75/2
f 224/106/3 139/11/3 140/13/3
f 226/109/4 141/15/4 145/19/4
f 227/110/4 222/103/4 197/77/4
f 228/111/1 223/104/1 204/84/1
f 203/83/1 204/84/1 170/47/1
f 234/119/1 219/100/1 205/85/1
f 198/78/4 199/79/4 207/87/4
f 219/100/1 235/120/1 133/3/1
f 235/120/1 156/31/1 148/23/1
f 196/76/4 212/93/4 185/62/4
f 213/94/4 185/62/4 184/61/4
f 207/87/4 213/94/4 209/89/4
f 206/86/4 207/87/4 221/102/4
f 169/46/1 170/47/1 219/100/1
f 170/47/1 157/32/1 235/120/1
f 157/32/1 158/33/1 156/31/1
f 159/34/4 160/35/4 164/39/4
f 214/95/1 175/52/1 182/59/1
f 175/52/1 174/51/1 180/57/1
f 160/35/4 230/113/4 163/38/4
f 163/38/4 230/113/4 229/112/4
f 174/51/1 176/53/1 183/60/1
f 168/45/4 163/38/4 162/37/4
f 164/39/4 163/38/4 168/45/4
f 161/36/4 164/39/4 194/74/4
f 208/88/1 178/55/1 175/52/1
f 178/55/1 177/54/1 174/51/1
f 177/54/1 179/56/1 176/53/1
f 180/57/1 183/60/1 193/72/1
f 182/59/1 180/57/1 216/97/1
f 181/58/1 182/59/1 223/104/1
f 165/40/4 197/77/4 160/35/4
f 230/113/4 187/64/4 218/99/4
f 133/3/1 148/23/1 132/1/1
f 205/85/1 133/3/1 147/22/1
f 225/107/1 205/85/1 139/12/1
f 166/41/4 145/19/4 199/79/4
f 145/19/4 146/20/4 196/76/4
f 146/20/4 143/17/4 212/93/4
f 151/26/5 190/69/5 167/43/5
f 192/71/6 134/5/6 149/24/6
f 167/43/4 210/90/4 155/30/4
f 200/80/1 188/66/1 144/18/1
f 151/26/7 150/25/7 144/18/7
f 144/18/5 188/66/5 190/69/5
f 190/69/2 171/48/2 167/43/2
f 167/43/5 155/30/5 151/26/5
f 151/26/5 144/18/5 190/69/5
f 149/24/6 132/2/6 200/80/6
f 200/80/8 191/70/8 192/71/8
f 192/71/6 210/90/6 134/5/6
f 134/5/3 138/10/3 149/24/3
f 149/24/6 200/80/6 192/71/6
f 167/43/4 134/5/4 210/90/4
f 200/80/1 132/2/1 188/66/1
