# Blender 3.4.1
# www.blender.org
mtllib jamb.mtl
o Door.001
v 0.504979 0.000000 -4.804595
v 0.504979 0.000000 -4.613175
v 0.421937 0.000000 -4.672029
v -0.421936 1.916069 -4.672028
v 0.421937 1.916069 -4.672028
v 0.421937 1.916069 -4.625843
v -0.421936 1.916069 -4.625843
v 0.449921 1.944053 -4.625843
v 0.449921 0.000000 -4.625843
v 0.449921 0.000000 -4.613175
v 0.449921 1.944053 -4.613175
v 0.504979 1.999111 -4.804594
v 0.504979 1.999111 -4.613175
v -0.449919 1.944053 -4.625843
v 0.449921 0.000000 -4.791926
v 0.449921 1.944053 -4.791926
v 0.449921 1.944053 -4.804594
v 0.449921 0.000000 -4.804595
v 0.421937 0.000000 -4.625843
v 0.421937 0.000000 -4.791926
v 0.421937 1.916069 -4.791926
v -0.449919 1.944053 -4.791926
v -0.449919 1.944053 -4.804594
v -0.421935 1.916069 -4.791926
v 0.421937 1.916069 -4.752154
v 0.421937 0.000000 -4.752154
v 0.402866 0.000000 -4.752154
v 0.402865 1.896998 -4.752154
v 0.402865 1.896998 -4.672029
v 0.402865 0.000000 -4.672029
v -0.402865 1.896998 -4.672029
v -0.402865 1.896998 -4.752154
v -0.421935 1.916069 -4.752154
v -0.504977 1.999111 -4.804594
v -0.504978 1.999111 -4.613175
v -0.449919 1.944053 -4.613175
v -0.504978 0.000000 -4.804595
v -0.421936 0.000000 -4.672029
v -0.504977 0.000000 -4.613175
v -0.449919 0.000000 -4.613175
v -0.449919 0.000000 -4.625843
v -0.449919 0.000000 -4.791926
v -0.449919 0.000000 -4.804595
v -0.421935 0.000000 -4.625843
v -0.421936 0.000000 -4.791926
v -0.421936 0.000000 -4.752154
v -0.402865 0.000000 -4.752154
v -0.402865 0.000000 -4.672029
v -0.416824 1.075727 -4.627917
v -0.415142 1.075727 -4.623857
v -0.415142 1.005131 -4.623857
v -0.416824 1.005131 -4.627917
v -0.416824 1.075727 -4.619797
v -0.416824 1.005131 -4.619797
v -0.420884 1.075727 -4.618115
v -0.420884 1.005131 -4.618115
v -0.424944 1.075727 -4.619797
v -0.424944 1.005131 -4.619797
v -0.426625 1.075727 -4.623857
v -0.426625 1.005131 -4.623857
v -0.424944 1.075727 -4.627917
v -0.424944 1.005131 -4.627917
v -0.420884 1.075727 -4.629598
v -0.420884 1.005131 -4.629598
v -0.420884 1.079438 -4.627727
v -0.418147 1.079438 -4.626594
v -0.424754 1.001420 -4.623857
v -0.423621 1.001420 -4.621121
v -0.423621 1.079438 -4.626594
v -0.424754 1.079438 -4.623857
v -0.423621 1.079438 -4.621121
v -0.420884 1.079438 -4.619987
v -0.418147 1.079438 -4.621121
v -0.417014 1.079438 -4.623857
v -0.420884 1.001420 -4.627727
v -0.418147 1.001420 -4.626594
v -0.417014 1.001420 -4.623857
v -0.418147 1.001420 -4.621121
v -0.420884 1.001420 -4.619987
v -0.423621 1.001420 -4.626594
v -0.416824 1.728731 -4.627917
v -0.415142 1.728731 -4.623857
v -0.415142 1.658135 -4.623857
v -0.416824 1.658135 -4.627917
v -0.416824 1.728731 -4.619797
v -0.416824 1.658135 -4.619797
v -0.420884 1.728731 -4.618115
v -0.420884 1.658135 -4.618115
v -0.424944 1.728731 -4.619797
v -0.424944 1.658135 -4.619797
v -0.426625 1.728731 -4.623857
v -0.426625 1.658135 -4.623857
v -0.424944 1.728731 -4.627917
v -0.424944 1.658135 -4.627917
v -0.420884 1.728731 -4.629598
v -0.420884 1.658135 -4.629598
v -0.420884 1.732442 -4.627726
v -0.418147 1.732442 -4.626594
v -0.424754 1.654425 -4.623857
v -0.423621 1.654425 -4.621121
v -0.423621 1.732442 -4.626594
v -0.424754 1.732442 -4.623857
v -0.423621 1.732442 -4.621121
v -0.420884 1.732442 -4.619987
v -0.418147 1.732442 -4.621121
v -0.417014 1.732442 -4.623857
v -0.420884 1.654425 -4.627726
v -0.418147 1.654425 -4.626594
v -0.417014 1.654425 -4.623857
v -0.418147 1.654425 -4.621121
v -0.420884 1.654425 -4.619987
v -0.423621 1.654425 -4.626594
v -0.416824 0.422724 -4.627917
v -0.415142 0.422724 -4.623857
v -0.415142 0.352127 -4.623857
v -0.416824 0.352127 -4.627917
v -0.416824 0.422724 -4.619797
v -0.416824 0.352127 -4.619797
v -0.420884 0.422724 -4.618115
v -0.420884 0.352127 -4.618115
v -0.424944 0.422724 -4.619797
v -0.424944 0.352127 -4.619797
v -0.426625 0.422724 -4.623857
v -0.426625 0.352127 -4.623857
v -0.424944 0.422724 -4.627917
v -0.424944 0.352127 -4.627917
v -0.420884 0.422724 -4.629598
v -0.420884 0.352127 -4.629598
v -0.420884 0.426434 -4.627728
v -0.418147 0.426434 -4.626595
v -0.424754 0.348417 -4.623857
v -0.423621 0.348417 -4.621121
v -0.423621 0.426434 -4.626595
v -0.424754 0.426434 -4.623857
v -0.423621 0.426434 -4.621121
v -0.420884 0.426434 -4.619987
v -0.418147 0.426434 -4.621121
v -0.417014 0.426434 -4.623857
v -0.420884 0.348417 -4.627728
v -0.418147 0.348417 -4.626595
v -0.417014 0.348417 -4.623857
v -0.418147 0.348417 -4.621121
v -0.420884 0.348417 -4.619987
v -0.423621 0.348417 -4.626595
vn -0.0000 -1.0000 -0.0000
vn -1.0000 -0.0000 -0.0000
vn 1.0000 -0.0000 -0.0000
vn -0.0000 -0.0000 1.0000
vn -0.0000 -0.0000 -1.0000
vn -0.0000 -0.0001 1.0000
vn -0.0000 1.0000 -0.0000
vn 0.9756 0.2197 -0.0000
vn 0.6898 -0.2196 -0.6899
vn 0.6898 0.2196 -0.6899
vn 0.6898 0.2197 0.6898
vn 0.9756 -0.2196 -0.0000
vn -0.0000 0.2197 0.9756
vn 0.6898 -0.2197 0.6899
vn -0.6899 0.2197 0.6898
vn -0.0000 -0.2197 0.9756
vn -0.9756 0.2196 -0.0000
vn -0.6899 -0.2193 0.6898
vn -0.6898 0.2196 -0.6899
vn -0.9756 -0.2196 -0.0000
vn -0.0000 0.2196 -0.9756
vn -0.6898 -0.2196 -0.6899
vn 0.6314 0.4502 -0.6314
vn -0.6315 -0.4503 0.6312
vn -0.0000 -0.2196 -0.9756
vn -0.6315 0.4503 0.6312
vn -0.8929 0.4502 0.0001
vn -0.0000 -0.4504 0.8928
vn 0.6314 -0.4504 0.6313
vn -0.0000 0.4504 0.8928
vn 0.6313 -0.4506 -0.6313
vn -0.6314 -0.4502 -0.6314
vn -0.8929 -0.4502 0.0001
vn 0.8929 0.4503 -0.0000
vn -0.6314 0.4502 -0.6314
vn 0.8928 -0.4504 0.0001
vn 0.6314 0.4504 0.6313
vn -0.0000 0.4502 -0.8929
vn -0.0000 -0.4502 -0.8929
vn 0.9756 0.2196 -0.0000
vn 0.6898 -0.2197 -0.6899
vn 0.9756 -0.2197 -0.0000
vn -0.0000 -0.2198 0.9756
vn -0.6899 -0.2197 0.6898
vn -0.6898 -0.2197 -0.6899
vn 0.6312 0.4503 -0.6315
vn -0.6314 -0.4504 0.6312
vn -0.0000 -0.2197 -0.9756
vn -0.6314 0.4503 0.6313
vn -0.0000 -0.4505 0.8928
vn 0.6313 -0.4505 0.6313
vn -0.0000 0.4501 0.8930
vn 0.6312 -0.4504 -0.6314
vn -0.6313 -0.4504 -0.6314
vn -0.8929 -0.4503 0.0001
vn 0.8928 0.4504 0.0001
vn -0.6313 0.4503 -0.6314
vn 0.6314 0.4503 0.6313
vn -0.0000 0.4504 -0.8928
vn -0.0000 -0.4505 -0.8928
vn 0.6898 0.2197 -0.6899
vn -0.0000 0.2198 0.9756
vn 0.6898 -0.2197 0.6898
vn -0.6899 -0.2197 0.6897
vn -0.6898 0.2196 -0.6898
vn -0.9756 -0.2197 -0.0000
vn 0.6313 0.4503 -0.6314
vn -0.6315 0.4504 0.6312
vn -0.8929 0.4503 -0.0000
vn 0.6314 -0.4504 0.6312
vn -0.0001 0.4500 0.8931
vn 0.8928 -0.4504 -0.0000
vn 0.6313 -0.4503 -0.6314
vn -0.6313 -0.4503 -0.6314
vn 0.8928 0.4504 -0.0000
vn 0.6314 0.4504 0.6312
vn -0.0000 0.4503 -0.8929
vn -0.0000 -0.4503 -0.8929
vn -0.0000 1.0000 0.0002
vn -0.0000 1.0000 -0.0001
vt 0.150177 0.996516
vt 0.190575 1.000187
vt 0.170817 1.001817
vt 0.134863 0.584784
vt 0.124947 0.814123
vt 0.091390 0.814276
vt 0.491596 0.832436
vt 0.083259 0.583065
vt 0.694559 0.601808
vt 0.471194 0.833610
vt 0.181289 1.002148
vt 0.189893 1.002087
vt 0.462341 0.833238
vt 0.306473 0.828041
vt 0.424622 0.835835
vt 0.666712 0.601645
vt 0.154322 0.998588
vt 0.261530 0.820492
vt 0.270872 0.821555
vt 0.147370 0.997664
vt 0.174020 1.002905
vt 0.158265 0.999541
vt 0.241968 0.816953
vt 0.341719 0.592486
vt 0.353766 0.593066
vt 0.312850 0.590785
vt 0.213089 0.815775
vt 0.161847 1.000068
vt 0.169460 1.000505
vt 0.199140 0.813354
vt 0.139433 0.812563
vt 0.162096 1.001345
vt 0.158555 0.585273
vt 0.249891 0.588138
vt 0.269531 0.589326
vt 0.409612 0.596104
vt 0.600969 0.601016
vt 0.653488 0.601214
vt 0.545651 0.018412
vt 0.637072 0.005924
vt 0.688584 0.018980
vt 0.694559 0.013051
vt 0.668594 0.010061
vt 0.567524 0.011785
vt 0.541683 0.013514
vt 0.650694 0.006102
vt 0.583712 0.009248
vt 0.598476 0.008163
vt 0.624742 0.007516
vt 0.608363 0.002995
vt 0.702603 0.051216
vt 0.870510 0.724047
vt 0.706449 0.051216
vt 0.870510 0.744987
vt 0.706449 0.072155
vt 0.702603 0.072155
vt 0.710295 0.051216
vt 0.871494 0.724047
vt 0.871494 0.744987
vt 0.710295 0.072155
vt 0.872479 0.724047
vt 0.714143 0.051216
vt 0.872479 0.744987
vt 0.714143 0.072155
vt 0.873464 0.724047
vt 0.717990 0.051216
vt 0.873464 0.744987
vt 0.717990 0.072155
vt 0.721835 0.051216
vt 0.721835 0.072155
vt 0.725682 0.051216
vt 0.694909 0.051216
vt 0.694909 0.072155
vt 0.725682 0.072155
vt 0.698756 0.051216
vt 0.698756 0.072155
vt 0.698756 0.049983
vt 0.702177 0.080644
vt 0.702177 0.079874
vt 0.702603 0.049983
vt 0.721835 0.073388
vt 0.697037 0.077378
vt 0.694909 0.077923
vt 0.717988 0.073388
vt 0.700049 0.081189
vt 0.725682 0.049983
vt 0.694909 0.049983
vt 0.697037 0.081189
vt 0.721835 0.049983
vt 0.694909 0.080644
vt 0.717988 0.049983
vt 0.694909 0.079874
vt 0.872479 0.722814
vt 0.714143 0.049983
vt 0.697037 0.079328
vt 0.871494 0.722814
vt 0.710295 0.049983
vt 0.700049 0.079328
vt 0.706449 0.049983
vt 0.702177 0.077923
vt 0.698756 0.073388
vt 0.702177 0.078694
vt 0.702603 0.073388
vt 0.700049 0.079239
vt 0.706449 0.073388
vt 0.697037 0.079239
vt 0.710295 0.073388
vt 0.694909 0.078694
vt 0.714143 0.073388
vt 0.700049 0.077378
vt 0.725682 0.073388
vt 0.694909 0.073388
vt 0.702603 0.027722
vt 0.835353 0.802116
vt 0.706449 0.027722
vt 0.706449 0.048661
vt 0.835353 0.823055
vt 0.702603 0.048661
vt 0.710295 0.027722
vt 0.836338 0.802116
vt 0.836338 0.823055
vt 0.837323 0.802116
vt 0.714143 0.048661
vt 0.837323 0.823055
vt 0.717990 0.027722
vt 0.838308 0.802116
vt 0.838308 0.823055
vt 0.717990 0.048661
vt 0.721835 0.027722
vt 0.721835 0.048661
vt 0.725682 0.027722
vt 0.694909 0.027722
vt 0.694909 0.048661
vt 0.725682 0.048661
vt 0.698756 0.027722
vt 0.698756 0.048661
vt 0.698756 0.026489
vt 0.702177 0.074793
vt 0.702177 0.074022
vt 0.702603 0.026489
vt 0.721835 0.049894
vt 0.697037 0.075428
vt 0.694909 0.075973
vt 0.717988 0.049894
vt 0.700049 0.075338
vt 0.725682 0.026489
vt 0.694909 0.026489
vt 0.697037 0.075338
vt 0.721835 0.026489
vt 0.838307 0.800883
vt 0.694909 0.074793
vt 0.717988 0.026489
vt 0.694909 0.074022
vt 0.837323 0.800883
vt 0.697037 0.073477
vt 0.836338 0.800883
vt 0.710295 0.026489
vt 0.700049 0.073477
vt 0.706449 0.026489
vt 0.702177 0.075973
vt 0.698756 0.049894
vt 0.702177 0.076743
vt 0.702603 0.049894
vt 0.835353 0.824287
vt 0.700049 0.077288
vt 0.706449 0.049894
vt 0.697037 0.077288
vt 0.836338 0.824287
vt 0.694909 0.076743
vt 0.837323 0.824287
vt 0.714143 0.049894
vt 0.700049 0.075428
vt 0.725682 0.049894
vt 0.694909 0.049894
vt 0.702603 0.004227
vt 0.706449 0.004227
vt 0.925197 0.805965
vt 0.706449 0.025167
vt 0.702603 0.025167
vt 0.710295 0.004227
vt 0.926182 0.805965
vt 0.926182 0.826904
vt 0.710295 0.025167
vt 0.927167 0.805965
vt 0.927167 0.826904
vt 0.714143 0.025167
vt 0.717990 0.004227
vt 0.928151 0.805965
vt 0.928151 0.826904
vt 0.717990 0.025167
vt 0.721835 0.004227
vt 0.721835 0.025167
vt 0.725682 0.004227
vt 0.694909 0.004227
vt 0.694909 0.025167
vt 0.725682 0.025167
vt 0.698756 0.004227
vt 0.698756 0.025167
vt 0.698756 0.002995
vt 0.702177 0.082595
vt 0.702177 0.081824
vt 0.702603 0.002995
vt 0.721835 0.026399
vt 0.697037 0.083229
vt 0.694909 0.083774
vt 0.717988 0.026399
vt 0.700049 0.083140
vt 0.725682 0.002995
vt 0.694909 0.002995
vt 0.697037 0.083140
vt 0.721835 0.002995
vt 0.928151 0.804732
vt 0.694909 0.082595
vt 0.717988 0.002995
vt 0.694909 0.081824
vt 0.927167 0.804732
vt 0.697037 0.081279
vt 0.926182 0.804732
vt 0.700049 0.081279
vt 0.706449 0.002995
vt 0.925197 0.804732
vt 0.702177 0.083774
vt 0.698756 0.026399
vt 0.702177 0.084545
vt 0.702603 0.026399
vt 0.700049 0.085090
vt 0.706449 0.026399
vt 0.697037 0.085090
vt 0.710295 0.026399
vt 0.694909 0.084545
vt 0.714143 0.026399
vt 0.700049 0.083229
vt 0.725682 0.026399
vt 0.694909 0.026399
s 0
g Door.001_None.001
usemtl None.001
f 1/1/1 2/2/1 3/3/1
f 5/5/1 7/8/1 4/4/1
f 9/11/2 11/13/2 8/10/2
f 13/15/3 1/1/3 12/14/3
f 14/16/4 6/7/4 8/10/4
f 16/18/2 18/20/2 15/17/2
f 6/7/4 9/11/4 8/10/4
f 21/23/5 15/17/5 20/22/5
f 23/25/1 16/18/1 22/24/1
f 11/13/4 2/2/4 13/15/4
f 17/19/5 1/1/5 18/20/5
f 22/24/5 21/23/5 24/26/5
f 21/23/2 26/28/2 25/27/2
f 5/5/2 19/21/2 6/6/2
f 26/28/5 28/30/5 25/27/5
f 28/30/2 30/32/2 29/31/2
f 3/3/4 29/31/4 30/32/4
f 4/4/6 29/31/6 5/5/6
f 28/30/5 33/35/5 25/27/5
f 34/36/5 17/19/5 23/25/5
f 13/15/4 36/38/4 11/13/4
f 34/36/7 13/15/7 12/14/7
f 21/23/1 33/35/1 24/26/1
f 36/38/1 8/10/1 11/13/1
f 15/17/1 1/1/1 26/28/1
f 3/3/1 27/29/1 26/28/1
f 26/28/1 1/1/1 3/3/1
f 15/17/1 18/20/1 1/1/1
f 3/3/1 30/32/1 27/29/1
f 2/2/1 9/11/1 3/3/1
f 9/11/1 19/21/1 3/3/1
f 2/2/1 10/12/1 9/11/1
f 26/28/1 20/22/1 15/17/1
f 37/39/1 38/40/1 39/41/1
f 36/38/3 41/43/3 14/16/3
f 37/39/2 35/37/2 34/36/2
f 43/45/3 22/24/3 42/44/3
f 7/9/4 41/43/4 44/46/4
f 42/44/5 24/26/5 45/47/5
f 36/38/4 39/41/4 40/42/4
f 37/39/5 23/25/5 43/45/5
f 46/48/3 24/26/3 33/35/3
f 44/46/3 4/4/3 7/8/3
f 32/34/5 46/48/5 33/35/5
f 48/50/3 32/34/3 31/33/3
f 38/40/4 31/33/4 4/4/4
f 42/44/1 46/48/1 37/39/1
f 38/40/1 46/48/1 47/49/1
f 46/48/1 38/40/1 37/39/1
f 42/44/1 37/39/1 43/45/1
f 38/40/1 47/49/1 48/50/1
f 39/41/1 38/40/1 41/43/1
f 41/43/1 38/40/1 44/46/1
f 39/41/1 41/43/1 40/42/1
f 46/48/1 42/44/1 45/47/1
f 28/30/1 31/33/1 32/34/1
s 1
f 50/53/8 52/56/9 49/51/10
f 53/58/11 51/54/12 50/52/8
f 55/61/13 54/59/14 53/58/11
f 57/65/15 56/63/16 55/61/13
f 59/69/17 58/68/18 57/66/15
f 61/71/19 60/70/20 59/69/17
f 63/75/21 62/73/22 61/72/19
f 63/75/21 66/80/23 49/51/10
f 60/70/20 68/84/24 58/68/18
f 49/51/10 64/76/25 63/75/21
f 71/90/7 73/95/7 66/79/7
f 78/106/1 68/83/1 80/110/1
f 59/69/17 71/91/26 70/89/27
f 54/60/14 79/109/28 78/107/29
f 53/58/11 72/93/30 55/61/13
f 51/55/12 76/103/31 52/56/9
f 60/70/20 80/111/32 67/81/33
f 49/51/10 74/99/34 50/53/8
f 59/69/17 69/86/35 61/71/19
f 58/68/18 79/109/28 56/64/16
f 57/66/15 72/94/30 71/91/26
f 51/55/12 78/107/29 77/105/36
f 64/76/25 80/112/32 62/73/22
f 50/53/8 73/97/37 53/57/11
f 63/75/21 69/87/35 65/77/38
f 64/76/25 76/103/31 75/101/39
f 82/115/40 84/118/41 81/113/10
f 85/120/11 83/117/42 82/114/40
f 87/122/13 86/121/14 85/120/11
f 89/126/15 88/124/43 87/122/13
f 91/129/17 90/128/44 89/125/15
f 93/131/19 92/130/20 91/129/17
f 95/135/21 94/133/45 93/132/19
f 95/135/21 98/140/46 81/113/10
f 92/130/20 100/144/47 90/128/44
f 81/113/10 96/136/48 95/135/21
f 103/151/7 105/155/7 98/139/7
f 110/167/1 100/143/1 112/172/1
f 91/129/17 103/152/49 102/149/27
f 86/121/14 111/170/50 110/168/51
f 85/120/11 104/154/52 87/122/13
f 83/116/42 108/163/53 84/118/41
f 92/130/20 112/173/54 99/141/55
f 82/115/40 98/140/46 106/159/56
f 91/129/17 101/146/57 93/131/19
f 90/128/44 111/171/50 88/123/43
f 89/126/15 104/154/52 103/150/49
f 83/117/42 110/168/51 109/164/36
f 96/136/48 112/174/54 94/133/45
f 82/115/40 105/157/58 85/119/11
f 95/135/21 101/147/57 97/137/59
f 96/136/48 108/163/53 107/161/60
f 114/176/8 116/179/41 113/175/61
f 117/180/11 115/178/42 114/176/8
f 119/184/62 118/182/63 117/181/11
f 121/188/15 120/185/43 119/184/62
f 123/191/17 122/190/64 121/187/15
f 125/193/65 124/192/66 123/191/17
f 127/197/21 126/195/22 125/194/65
f 127/197/21 130/202/67 113/175/61
f 124/192/66 132/206/47 122/190/64
f 113/175/61 128/198/25 127/197/21
f 135/213/7 137/217/7 130/201/7
f 142/228/1 132/205/1 144/232/1
f 123/191/17 135/214/68 134/211/69
f 118/183/63 143/231/50 142/229/70
f 117/181/11 136/216/71 119/184/62
f 116/179/41 141/227/72 140/225/73
f 124/192/66 144/233/74 131/203/55
f 113/175/61 138/220/75 114/176/8
f 123/191/17 133/208/57 125/193/65
f 122/190/64 143/231/50 120/186/43
f 121/188/15 136/216/71 135/212/68
f 115/178/42 142/229/70 141/227/72
f 128/198/25 144/234/74 126/195/22
f 114/177/8 137/218/76 117/181/11
f 127/197/21 133/209/57 129/199/77
f 128/198/25 140/225/73 139/223/78
s 0
f 5/5/1 6/6/1 7/8/1
f 9/11/2 10/12/2 11/13/2
f 13/15/3 2/2/3 1/1/3
f 14/16/4 7/9/4 6/7/4
f 16/18/2 17/19/2 18/20/2
f 6/7/4 19/21/4 9/11/4
f 21/23/5 16/18/5 15/17/5
f 23/25/1 17/19/1 16/18/1
f 11/13/4 10/12/4 2/2/4
f 17/19/5 12/14/5 1/1/5
f 22/24/5 16/18/5 21/23/5
f 21/23/2 20/22/2 26/28/2
f 5/5/2 3/3/2 19/21/2
f 26/28/5 27/29/5 28/30/5
f 28/30/2 27/29/2 30/32/2
f 3/3/4 5/5/4 29/31/4
f 4/4/6 31/33/6 29/31/6
f 28/30/5 32/34/5 33/35/5
f 34/36/5 12/14/5 17/19/5
f 13/15/4 35/37/4 36/38/4
f 34/36/7 35/37/7 13/15/7
f 21/23/1 25/27/1 33/35/1
f 36/38/1 14/16/1 8/10/1
f 36/38/3 40/42/3 41/43/3
f 37/39/2 39/41/2 35/37/2
f 43/45/3 23/25/3 22/24/3
f 7/9/4 14/16/4 41/43/4
f 42/44/5 22/24/5 24/26/5
f 36/38/4 35/37/4 39/41/4
f 37/39/5 34/36/5 23/25/5
f 46/48/3 45/47/3 24/26/3
f 44/46/3 38/40/3 4/4/3
f 32/34/5 47/49/5 46/48/5
f 48/50/3 47/49/3 32/34/3
f 38/40/4 48/50/4 31/33/4
f 28/30/1 29/31/1 31/33/1
s 1
f 50/53/8 51/55/12 52/56/9
f 53/58/11 54/59/14 51/54/12
f 55/61/13 56/63/16 54/59/14
f 57/65/15 58/67/18 56/63/16
f 59/69/17 60/70/20 58/68/18
f 61/71/19 62/74/22 60/70/20
f 63/75/21 64/76/25 62/73/22
f 63/75/21 65/77/38 66/80/23
f 60/70/20 67/81/33 68/84/24
f 49/51/10 52/56/9 64/76/25
f 66/79/7 65/78/7 69/85/7
f 69/85/7 70/88/7 71/90/7
f 71/90/7 72/92/7 73/95/7
f 73/95/7 74/98/7 66/79/7
f 66/79/7 69/85/7 71/90/7
f 80/110/1 75/100/1 76/102/1
f 76/102/1 77/104/1 78/106/1
f 78/106/1 79/108/1 68/83/1
f 68/83/1 67/82/1 80/110/1
f 80/110/1 76/102/1 78/106/1
f 59/69/17 57/66/15 71/91/26
f 54/60/14 56/64/16 79/109/28
f 53/58/11 73/96/37 72/93/30
f 51/55/12 77/105/36 76/103/31
f 60/70/20 62/74/22 80/111/32
f 49/51/10 66/80/23 74/99/34
f 59/69/17 70/89/27 69/86/35
f 58/68/18 68/84/24 79/109/28
f 57/66/15 55/62/13 72/94/30
f 51/55/12 54/60/14 78/107/29
f 64/76/25 75/101/39 80/112/32
f 50/53/8 74/99/34 73/97/37
f 63/75/21 61/72/19 69/87/35
f 64/76/25 52/56/9 76/103/31
f 82/115/40 83/116/42 84/118/41
f 85/120/11 86/121/14 83/117/42
f 87/122/13 88/124/43 86/121/14
f 89/126/15 90/127/44 88/124/43
f 91/129/17 92/130/20 90/128/44
f 93/131/19 94/134/45 92/130/20
f 95/135/21 96/136/48 94/133/45
f 95/135/21 97/137/59 98/140/46
f 92/130/20 99/141/55 100/144/47
f 81/113/10 84/118/41 96/136/48
f 98/139/7 97/138/79 101/145/7
f 101/145/7 102/148/7 103/151/7
f 103/151/7 104/153/80 105/155/7
f 105/155/7 106/158/7 98/139/7
f 98/139/7 101/145/7 103/151/7
f 112/172/1 107/160/1 108/162/1
f 108/162/1 109/165/1 110/167/1
f 110/167/1 111/169/1 100/143/1
f 100/143/1 99/142/1 112/172/1
f 112/172/1 108/162/1 110/167/1
f 91/129/17 89/125/15 103/152/49
f 86/121/14 88/124/43 111/170/50
f 85/120/11 105/156/58 104/154/52
f 83/116/42 109/166/36 108/163/53
f 92/130/20 94/134/45 112/173/54
f 82/115/40 81/113/10 98/140/46
f 91/129/17 102/149/27 101/146/57
f 90/128/44 100/144/47 111/171/50
f 89/126/15 87/122/13 104/154/52
f 83/117/42 86/121/14 110/168/51
f 96/136/48 107/161/60 112/174/54
f 82/115/40 106/159/56 105/157/58
f 95/135/21 93/132/19 101/147/57
f 96/136/48 84/118/41 108/163/53
f 114/176/8 115/178/42 116/179/41
f 117/180/11 118/183/63 115/178/42
f 119/184/62 120/185/43 118/182/63
f 121/188/15 122/189/64 120/185/43
f 123/191/17 124/192/66 122/190/64
f 125/193/65 126/196/22 124/192/66
f 127/197/21 128/198/25 126/195/22
f 127/197/21 129/199/77 130/202/67
f 124/192/66 131/203/55 132/206/47
f 113/175/61 116/179/41 128/198/25
f 130/201/7 129/200/7 133/207/7
f 133/207/7 134/210/7 135/213/7
f 135/213/7 136/215/7 137/217/7
f 137/217/7 138/219/7 130/201/7
f 130/201/7 133/207/7 135/213/7
f 144/232/1 139/222/1 140/224/1
f 140/224/1 141/226/1 142/228/1
f 142/228/1 143/230/1 132/205/1
f 132/205/1 131/204/1 144/232/1
f 144/232/1 140/224/1 142/228/1
f 123/191/17 121/187/15 135/214/68
f 118/183/63 120/186/43 143/231/50
f 117/181/11 137/218/76 136/216/71
f 116/179/41 115/178/42 141/227/72
f 124/192/66 126/196/22 144/233/74
f 113/175/61 130/202/67 138/220/75
f 123/191/17 134/211/69 133/208/57
f 122/190/64 132/206/47 143/231/50
f 121/188/15 119/184/62 136/216/71
f 115/178/42 118/183/63 142/229/70
f 128/198/25 139/223/78 144/234/74
f 114/177/8 138/221/75 137/218/76
f 127/197/21 125/194/65 133/209/57
f 128/198/25 116/179/41 140/225/73
