# Blender v3.2.1 OBJ File: 'untitled.blend'
# www.blender.org
mtllib chair.mtl
o chair_Cube.003
v -0.314480 0.613288 -0.129427
v -0.314480 0.663788 -0.129427
v -0.314480 0.613288 -0.031859
v -0.314480 1.534193 -0.031859
v -0.427059 0.613288 -0.129427
v -0.427059 0.663788 -0.129427
v -0.427059 0.000000 -0.001859
v -0.392763 0.663788 -0.031859
v -0.457059 0.613288 -0.031859
v -0.427059 0.613288 -0.061859
v -0.397059 0.613288 -0.031859
v -0.427059 0.613288 -0.001859
v -0.457059 0.000000 -0.031859
v -0.427059 0.000000 -0.061859
v -0.397059 0.000000 -0.031859
v -0.370770 0.663788 -0.129427
v -0.370770 1.534193 -0.031859
v -0.370770 0.613288 -0.129427
v -0.714480 0.613288 -0.129427
v -0.714480 0.663788 -0.129427
v -0.714480 0.663788 -0.031859
v -0.714480 0.613288 -0.031859
v -1.114480 0.613288 -0.129427
v -1.114480 0.663788 -0.129427
v -1.114480 0.613288 -0.031859
v -1.114480 0.663788 -0.031859
v -1.001901 0.613288 -0.129427
v -1.001901 0.663788 -0.129427
v -1.001901 0.000000 -0.001859
v -1.001901 0.663788 -0.031859
v -0.971901 0.613288 -0.031859
v -1.001901 0.613288 -0.061859
v -1.031901 0.613288 -0.031859
v -1.001901 0.613288 -0.001859
v -0.971901 0.000000 -0.031859
v -1.001901 0.000000 -0.061859
v -1.031901 0.000000 -0.031859
v -1.058190 0.663788 -0.129427
v -1.058190 0.663788 -0.031859
v -1.058190 0.613288 -0.129427
v -0.314480 1.534193 0.211537
v -0.314480 0.613288 0.211537
v -0.392763 0.663788 0.211537
v -0.427059 0.613288 0.211537
v -0.370770 1.534193 0.211537
v -0.714480 0.663788 0.211537
v -0.714480 0.613288 0.211537
v -1.114480 0.663788 0.211537
v -1.114480 0.613288 0.211537
v -1.001901 0.663788 0.211537
v -1.001901 0.613288 0.211537
v -1.058190 0.663788 0.211537
v -0.314480 0.613288 0.552501
v -0.314480 0.663788 0.552501
v -0.314480 0.613288 0.454933
v -0.314480 1.534193 0.454933
v -0.427059 0.613288 0.552501
v -0.427059 0.663788 0.552501
v -0.427059 0.000000 0.424933
v -0.392763 0.663788 0.454933
v -0.457059 0.613288 0.454933
v -0.427059 0.613288 0.484933
v -0.397059 0.613288 0.454933
v -0.427059 0.613288 0.424933
v -0.457059 0.000000 0.454933
v -0.427059 0.000000 0.484933
v -0.397059 0.000000 0.454933
v -0.370770 0.663788 0.552501
v -0.370770 1.534193 0.454933
v -0.370770 0.613288 0.552501
v -0.714480 0.613288 0.552501
v -0.714480 0.663788 0.552501
v -0.714480 0.663788 0.454933
v -0.714480 0.613288 0.454933
v -1.114480 0.613288 0.552501
v -1.114480 0.663788 0.552501
v -1.114480 0.613288 0.454933
v -1.114480 0.663788 0.454933
v -1.001901 0.613288 0.552501
v -1.001901 0.663788 0.552501
v -1.001901 0.000000 0.424933
v -1.001901 0.663788 0.454933
v -0.971901 0.613288 0.454933
v -1.001901 0.613288 0.484933
v -1.031901 0.613288 0.454933
v -1.001901 0.613288 0.424933
v -0.971901 0.000000 0.454933
v -1.001901 0.000000 0.484933
v -1.031901 0.000000 0.454933
v -1.058190 0.663788 0.552501
v -1.058190 0.663788 0.454933
v -1.058190 0.613288 0.552501
v -0.427059 0.663788 -0.031859
v -0.427059 0.663788 0.454933
v -0.427059 0.663788 0.211537
vt 0.375000 0.482410
vt 0.625000 0.482410
vt 0.625000 0.500000
vt 0.375000 0.500000
vt 0.339819 0.500000
vt 0.357410 0.500000
vt 0.375000 0.516261
vt 0.349194 0.516261
vt 0.339819 0.511261
vt 0.625000 0.516261
vt 0.330444 0.516261
vt 0.339819 0.511261
vt 0.349194 0.516261
vt 0.339819 0.521261
vt 0.250000 0.500000
vt 0.330444 0.516261
vt 0.250000 0.516261
vt 0.375000 0.375000
vt 0.625000 0.375000
vt 0.625000 0.464819
vt 0.375000 0.464819
vt 0.339819 0.521261
vt 0.642591 0.500000
vt 0.642591 0.516261
vt 0.660181 0.516261
vt 0.669756 0.516261
vt 0.625000 0.464819
vt 0.625000 0.482410
vt 0.375000 0.482410
vt 0.375000 0.500000
vt 0.625000 0.500000
vt 0.625000 0.482410
vt 0.339819 0.500000
vt 0.339819 0.511261
vt 0.349194 0.516261
vt 0.375000 0.516261
vt 0.357410 0.500000
vt 0.625000 0.516261
vt 0.330444 0.516261
vt 0.339819 0.521261
vt 0.349194 0.516261
vt 0.339819 0.511261
vt 0.642591 0.500000
vt 0.642591 0.516261
vt 0.660181 0.516261
vt 0.660181 0.500000
vt 0.330444 0.516261
vt 0.375000 0.464819
vt 0.625000 0.464819
vt 0.339819 0.521261
vt 0.750000 0.516261
vt 0.750000 0.500000
vt 0.642591 0.556827
vt 0.660181 0.556827
vt 0.339819 0.556827
vt 0.375000 0.556827
vt 0.625000 0.556827
vt 0.250000 0.556827
vt 0.750000 0.556827
vt 0.339819 0.556827
vt 0.660181 0.516261
vt 0.660181 0.556827
vt 0.642591 0.556827
vt 0.669756 0.516261
vt 0.669756 0.556827
vt 0.375000 0.556827
vt 0.625000 0.556827
vt 0.375000 0.482410
vt 0.375000 0.500000
vt 0.625000 0.500000
vt 0.339819 0.500000
vt 0.339819 0.511261
vt 0.349194 0.516261
vt 0.375000 0.516261
vt 0.357410 0.500000
vt 0.625000 0.516261
vt 0.330444 0.516261
vt 0.339819 0.521261
vt 0.349194 0.516261
vt 0.339819 0.511261
vt 0.642591 0.516261
vt 0.642591 0.500000
vt 0.250000 0.500000
vt 0.250000 0.516261
vt 0.330444 0.516261
vt 0.375000 0.375000
vt 0.375000 0.464819
vt 0.625000 0.375000
vt 0.339819 0.521261
vt 0.375000 0.482410
vt 0.625000 0.482410
vt 0.625000 0.500000
vt 0.375000 0.500000
vt 0.339819 0.500000
vt 0.357410 0.500000
vt 0.375000 0.516261
vt 0.349194 0.516261
vt 0.339819 0.511261
vt 0.625000 0.516261
vt 0.330444 0.516261
vt 0.339819 0.511261
vt 0.349194 0.516261
vt 0.339819 0.521261
vt 0.642591 0.500000
vt 0.660181 0.500000
vt 0.660181 0.516261
vt 0.642591 0.516261
vt 0.330444 0.516261
vt 0.625000 0.464819
vt 0.375000 0.464819
vt 0.339819 0.521261
vt 0.750000 0.500000
vt 0.750000 0.516261
vt 0.660181 0.500000
vt 0.660181 0.500000
vn 0.0000 -0.7071 -0.7071
vn -0.2616 0.2862 -0.9218
vn 0.6948 0.0401 -0.7181
vn 0.5774 -0.5774 -0.5774
vn 0.7071 -0.7071 0.0000
vn 0.4264 -0.9045 0.0000
vn 0.0000 -0.9045 -0.4264
vn 0.5834 0.6054 -0.5413
vn -0.8165 -0.5774 0.0000
vn 0.0000 -0.5774 -0.8165
vn 0.8165 -0.5774 0.0000
vn 0.0000 -0.5774 0.8165
vn -0.4264 -0.9045 0.0000
vn 0.0000 -1.0000 0.0000
vn 0.0000 0.7071 -0.7071
vn 0.0000 -0.9045 0.4264
vn -0.5754 0.6118 -0.5427
vn -0.6670 0.7413 0.0741
vn 0.0000 1.0000 0.0000
vn 0.0000 0.7071 0.7071
vn -0.2616 0.2862 0.9218
vn -0.5774 -0.5774 -0.5774
vn -0.5774 0.5774 -0.5774
vn -0.7071 -0.7071 -0.0000
vn -0.7071 0.7071 0.0000
vn -0.6670 0.7413 -0.0741
vn -0.6981 0.7160 0.0000
vn 0.7071 0.7071 0.0000
vn 0.0000 -0.7071 0.7071
vn 0.5774 -0.5774 0.5774
vn 0.6948 0.0401 0.7181
vn 0.5834 0.6054 0.5413
vn -0.5754 0.6118 0.5427
vn -0.5774 0.5774 0.5774
vn -0.5774 -0.5774 0.5774
usemtl Material.004
s 1
f 18/1/1 16/2/2 2/3/3 1/4/4
f 5/5/1 18/6/1 1/4/4 3/7/5 11/8/6 10/9/7
f 1/4/4 2/3/3 4/10/8 3/7/5
f 13/11/9 14/12/10 15/13/11 7/14/12
f 19/15/1 5/5/1 10/9/7 9/16/13 22/17/14
f 19/18/1 20/19/15 6/20/15 5/21/1
f 10/9/7 11/8/6 15/13/11 14/12/10
f 12/22/16 9/16/13 13/11/9 7/14/12
f 11/8/6 12/22/16 7/14/12 15/13/11
f 9/16/13 10/9/7 14/12/10 13/11/9
f 2/3/3 16/23/2 17/24/17 4/10/8
f 5/21/1 6/20/15 16/2/2 18/1/1
f 60/25/18 94/26/19 58/27/20 68/28/21
f 40/29/1 23/30/22 24/31/23 38/32/15
f 27/33/1 32/34/7 33/35/13 25/36/24 23/30/22 40/37/1
f 23/30/22 25/36/24 26/38/25 24/31/23
f 35/39/11 29/40/12 37/41/9 36/42/10
f 38/43/15 39/44/19 30/45/19 28/46/15
f 19/15/1 22/17/14 31/47/6 32/34/7 27/33/1
f 19/18/1 27/48/1 28/49/15 20/19/15
f 32/34/7 36/42/10 37/41/9 33/35/13
f 34/50/16 29/40/12 35/39/11 31/47/6
f 33/35/13 37/41/9 29/40/12 34/50/16
f 31/47/6 35/39/11 36/42/10 32/34/7
f 24/31/23 26/38/25 39/44/19 38/43/15
f 27/48/1 40/29/1 38/32/15 28/49/15
f 28/46/15 30/45/19 21/51/19 20/52/15
f 39/44/19 52/53/19 50/54/19 30/45/19
f 34/50/16 51/55/14 49/56/24 25/36/24 33/35/13
f 25/36/24 49/56/24 48/57/25 26/38/25
f 26/38/25 48/57/25 52/53/19 39/44/19
f 22/17/14 47/58/14 51/55/14 34/50/16 31/47/6
f 30/45/19 50/54/19 46/59/19 21/51/19
f 22/17/14 9/16/13 12/22/16 44/60/14 47/58/14
f 17/24/17 8/61/26 43/62/27 45/63/27
f 8/61/26 93/64/19 95/65/19 43/62/27
f 12/22/16 11/8/6 3/7/5 42/66/5 44/60/14
f 3/7/5 4/10/8 41/67/28 42/66/5
f 4/10/8 17/24/17 45/63/27 41/67/28
f 70/68/29 53/69/30 54/70/31 68/28/21
f 57/71/29 62/72/16 63/73/6 55/74/5 53/69/30 70/75/29
f 53/69/30 55/74/5 56/76/32 54/70/31
f 65/77/9 59/78/10 67/79/11 66/80/12
f 69/81/33 60/25/18 68/82/21
f 71/83/29 74/84/14 61/85/13 62/72/16 57/71/29
f 71/86/29 57/87/29 58/27/20 72/88/20
f 62/72/16 66/80/12 67/79/11 63/73/6
f 64/89/7 59/78/10 65/77/9 61/85/13
f 63/73/6 67/79/11 59/78/10 64/89/7
f 61/85/13 65/77/9 66/80/12 62/72/16
f 54/70/31 56/76/32 69/81/33 68/82/21
f 57/87/29 70/68/29 68/28/21 58/27/20
f 92/90/29 90/91/20 76/92/34 75/93/35
f 79/94/29 92/95/29 75/93/35 77/96/24 85/97/13 84/98/16
f 75/93/35 76/92/34 78/99/25 77/96/24
f 87/100/11 88/101/12 89/102/9 81/103/10
f 90/104/20 80/105/20 82/106/19 91/107/19
f 71/83/29 79/94/29 84/98/16 83/108/6 74/84/14
f 71/86/29 72/88/20 80/109/20 79/110/29
f 84/98/16 85/97/13 89/102/9 88/101/12
f 86/111/7 83/108/6 87/100/11 81/103/10
f 85/97/13 86/111/7 81/103/10 89/102/9
f 83/108/6 84/98/16 88/101/12 87/100/11
f 76/92/34 90/104/20 91/107/19 78/99/25
f 79/110/29 80/109/20 90/91/20 92/90/29
f 80/105/20 72/112/20 73/113/19 82/106/19
f 91/107/19 82/106/19 50/54/19 52/53/19
f 86/111/7 85/97/13 77/96/24 49/56/24 51/55/14
f 77/96/24 78/99/25 48/57/25 49/56/24
f 78/99/25 91/107/19 52/53/19 48/57/25
f 74/84/14 83/108/6 86/111/7 51/55/14 47/58/14
f 82/106/19 73/113/19 46/59/19 50/54/19
f 74/84/14 47/58/14 44/60/14 64/89/7 61/85/13
f 69/81/33 45/63/27 43/62/27 60/25/18
f 60/25/18 43/62/27 95/65/19 94/26/19
f 64/89/7 44/60/14 42/66/5 55/74/5 63/73/6
f 55/74/5 42/66/5 41/67/28 56/76/32
f 56/76/32 41/67/28 45/63/27 69/81/33
f 17/24/17 16/23/2 8/61/26
f 94/26/19 73/113/19 72/112/20 58/114/20
f 93/64/19 6/115/15 20/52/15 21/51/19
f 94/26/19 95/65/19 46/59/19 73/113/19
f 95/65/19 93/64/19 21/51/19 46/59/19
f 8/61/26 16/2/2 6/115/15 93/64/19
