# Blender 3.4.1
# www.blender.org
o Floor
v -4.000000 -0.000002 5.000000
v -4.000000 0.000002 -5.000000
v 4.000000 -0.000002 5.000000
v 4.000000 0.000002 -5.000000
v 3.600000 -0.000002 5.000000
v -3.600000 -0.000002 5.000000
v -0.960000 -0.000002 5.000000
v 0.960000 -0.000002 5.000000
v 2.280000 -0.000002 5.000000
v 1.620000 -0.000002 5.000000
v -2.280000 -0.000002 5.000000
v -2.940000 -0.000002 5.000000
v -1.620000 -0.000002 5.000000
v 2.940000 -0.000002 5.000000
v -4.000000 -0.431742 5.000000
v -4.000000 -0.431739 -5.000000
v 4.000000 -0.431742 5.000000
v 4.000000 -0.431739 -5.000000
vn -0.0000 -1.0000 -0.0000
vn -0.0000 1.0000 -0.0000
vn 1.0000 -0.0000 -0.0000
vn -0.0000 -0.0000 1.0000
vn -0.0000 -0.0000 -1.0000
vn -1.0000 -0.0000 -0.0000
vt 0.000000 0.000000
vt 0.000000 0.000000
vt 0.000000 0.000000
vt 0.000000 0.000000
vt 0.000000 0.000000
vt 0.000000 0.000000
vt 0.000000 0.000000
vt 0.000000 0.000000
s 0
f 4/4/1 1/1/1 2/2/1
f 15/5/2 18/8/2 16/6/2
f 1/1/3 16/6/3 2/2/3
f 2/2/4 18/8/4 4/4/4
f 3/3/5 15/5/5 1/1/5
f 4/4/6 17/7/6 3/3/6
f 4/4/1 3/3/1 1/1/1
f 15/5/2 17/7/2 18/8/2
f 1/1/3 15/5/3 16/6/3
f 2/2/4 16/6/4 18/8/4
f 3/3/5 17/7/5 15/5/5
f 4/4/6 18/8/6 17/7/6
l 3 5
l 1 6
l 7 8
l 9 10
l 11 12
l 11 13
l 9 14
l 6 12
l 5 14
l 8 10
l 7 13
