# Blender v3.2.1 OBJ File: 'untitled.blend'
# www.blender.org
mtllib materace.mtl
o materace_Cube.005
v 1.427630 0.290372 -0.807401
v 1.453484 0.297289 -0.807401
v 1.427630 0.297289 -0.833255
v 1.452230 0.303802 -0.832001
v 1.427630 0.316294 -0.852260
v 1.427630 0.342148 -0.859177
v 1.427630 0.469987 -0.859177
v 1.453484 0.469987 -0.852260
v 1.427630 0.495841 -0.852260
v 1.452230 0.494587 -0.845747
v 1.427630 0.514846 -0.833255
v 1.452230 0.508333 -0.832001
v 1.427630 0.521763 -0.807401
v 1.453484 0.514846 -0.807401
v 1.472489 0.495841 -0.807401
v 1.479406 0.469987 -0.807401
v 1.479406 0.342148 -0.807401
v 1.472489 0.316294 -0.807401
v 1.465976 0.317548 -0.832001
v 1.472489 0.342148 -0.833255
v 1.452230 0.317548 -0.845747
v 1.453484 0.342148 -0.852260
v 1.472489 0.469987 -0.833255
v 1.465976 0.494587 -0.832001
v 0.886278 0.290372 -0.807401
v 0.886278 0.521763 -0.807401
v 0.886278 0.297306 -0.833285
v 0.886278 0.316264 -0.852242
v 0.886278 0.342148 -0.859177
v 0.886278 0.469987 -0.859177
v 0.886278 0.495871 -0.852242
v 0.886278 0.514828 -0.833285
v 0.344926 0.290372 -0.807401
v 0.319072 0.297289 -0.807401
v 0.344926 0.297289 -0.833255
v 0.320326 0.303802 -0.832001
v 0.344926 0.316294 -0.852260
v 0.344926 0.342148 -0.859177
v 0.344926 0.469987 -0.859177
v 0.319072 0.469987 -0.852260
v 0.344926 0.495841 -0.852260
v 0.320326 0.494587 -0.845747
v 0.344926 0.514846 -0.833255
v 0.320326 0.508333 -0.832001
v 0.344926 0.521763 -0.807401
v 0.319072 0.514846 -0.807401
v 0.300067 0.495841 -0.807401
v 0.293150 0.469987 -0.807401
v 0.293150 0.342148 -0.807401
v 0.300067 0.316294 -0.807401
v 0.306580 0.317548 -0.832001
v 0.300067 0.342148 -0.833255
v 0.320326 0.317548 -0.845747
v 0.319072 0.342148 -0.852260
v 0.300067 0.469987 -0.833255
v 0.306580 0.494587 -0.832001
v 1.427630 0.290372 0.053381
v 1.427630 0.521763 0.053381
v 1.453510 0.297304 0.053381
v 1.472474 0.316268 0.053381
v 1.453510 0.514831 0.053381
v 1.472474 0.495867 0.053381
v 1.479406 0.469987 0.053381
v 1.479406 0.342148 0.053381
v 0.886278 0.521763 0.053381
v 0.886278 0.290372 0.053381
v 0.344926 0.290372 0.053381
v 0.344926 0.521763 0.053381
v 0.319046 0.297304 0.053381
v 0.300082 0.316268 0.053381
v 0.319046 0.514831 0.053381
v 0.300082 0.495867 0.053381
v 0.293150 0.469987 0.053381
v 0.293150 0.342148 0.053381
v 1.427630 0.290372 0.914162
v 1.453484 0.297289 0.914163
v 1.427630 0.297289 0.940016
v 1.452230 0.303802 0.938762
v 1.427630 0.316294 0.959021
v 1.427630 0.342148 0.965938
v 1.427630 0.469987 0.965938
v 1.453484 0.469987 0.959021
v 1.427630 0.495841 0.959021
v 1.452230 0.494587 0.952508
v 1.427630 0.514846 0.940016
v 1.452230 0.508333 0.938762
v 1.427630 0.521763 0.914162
v 1.453484 0.514846 0.914163
v 1.472489 0.495841 0.914163
v 1.479406 0.469987 0.914162
v 1.479406 0.342148 0.914162
v 1.472489 0.316294 0.914163
v 1.465976 0.317548 0.938762
v 1.472489 0.342148 0.940016
v 1.452230 0.317548 0.952508
v 1.453484 0.342148 0.959021
v 1.472489 0.469987 0.940016
v 1.465976 0.494587 0.938762
v 0.886278 0.290372 0.914162
v 0.886278 0.521763 0.914162
v 0.886278 0.297306 0.940046
v 0.886278 0.316264 0.959004
v 0.886278 0.342148 0.965938
v 0.886278 0.469987 0.965938
v 0.886278 0.495871 0.959004
v 0.886278 0.514828 0.940046
v 0.344926 0.290372 0.914162
v 0.319072 0.297289 0.914163
v 0.344926 0.297289 0.940016
v 0.320326 0.303802 0.938762
v 0.344926 0.316294 0.959021
v 0.344926 0.342148 0.965938
v 0.344926 0.469987 0.965938
v 0.319072 0.469987 0.959021
v 0.344926 0.495841 0.959021
v 0.320326 0.494587 0.952508
v 0.344926 0.514846 0.940016
v 0.320326 0.508333 0.938762
v 0.344926 0.521763 0.914162
v 0.319072 0.514846 0.914163
v 0.300067 0.495841 0.914163
v 0.293150 0.469987 0.914162
v 0.293150 0.342148 0.914162
v 0.300067 0.316294 0.914163
v 0.306580 0.317548 0.938762
v 0.300067 0.342148 0.940016
v 0.320326 0.317548 0.952508
v 0.319072 0.342148 0.959021
v 0.300067 0.469987 0.940016
v 0.306580 0.494587 0.938762
vt 0.676957 0.525890
vt 0.676957 0.521082
vt 0.668986 0.521315
vt 0.668580 0.525890
vt 0.676957 0.516261
vt 0.668986 0.516261
vt 0.852367 0.516261
vt 0.676957 0.516261
vt 0.852367 0.516642
vt 0.852367 0.516642
vt 0.676957 0.516261
vt 0.676957 0.516261
vt 0.852367 0.516261
vt 0.852367 0.521076
vt 0.676957 0.521082
vt 0.668580 0.516261
vt 0.668580 0.516261
vt 0.668986 0.516261
vt 0.668986 0.521315
vt 0.852367 0.525890
vt 0.676957 0.525890
vt 0.668580 0.525890
vt 0.852367 0.521076
vt 0.852367 0.525890
vt 0.660181 0.685966
vt 0.660181 0.525890
vt 0.660181 0.525890
vt 0.660181 0.685966
vt 0.660181 0.525890
vt 0.660181 0.521315
vt 0.660181 0.521082
vt 0.660181 0.521082
vt 0.660181 0.521315
vt 0.660181 0.525890
vt 0.676957 0.525890
vt 0.668580 0.525890
vt 0.668986 0.521315
vt 0.676957 0.521082
vt 0.668986 0.516261
vt 0.676957 0.516261
vt 0.676957 0.516261
vt 0.676957 0.516261
vt 0.676957 0.516261
vt 0.676957 0.521082
vt 0.668580 0.516261
vt 0.668580 0.516261
vt 0.668986 0.516261
vt 0.668986 0.521315
vt 0.676957 0.525890
vt 0.668580 0.525890
vt 0.660181 0.685966
vt 0.660181 0.685966
vt 0.660181 0.525890
vt 0.660181 0.525890
vt 0.660181 0.521082
vt 0.660181 0.521315
vt 0.660181 0.525890
vt 0.660181 0.521082
vt 0.660181 0.525890
vt 0.660181 0.521315
vt 0.660752 0.685966
vt 0.668572 0.685966
vt 0.660752 0.685966
vt 0.668572 0.685966
vt 0.676957 0.685966
vt 0.676957 0.685966
vt 0.852367 0.685966
vt 0.852367 0.685966
vt 0.660752 0.685966
vt 0.668572 0.685966
vt 0.660752 0.685966
vt 0.668572 0.685966
vt 0.676957 0.685966
vt 0.676957 0.685966
vt 0.676957 0.525890
vt 0.668580 0.525890
vt 0.668986 0.521315
vt 0.676957 0.521082
vt 0.668986 0.516261
vt 0.676957 0.516261
vt 0.852367 0.516261
vt 0.852367 0.516642
vt 0.676957 0.516261
vt 0.852367 0.516642
vt 0.852367 0.516261
vt 0.676957 0.516261
vt 0.676957 0.516261
vt 0.852367 0.521076
vt 0.676957 0.521082
vt 0.668580 0.516261
vt 0.668580 0.516261
vt 0.668986 0.516261
vt 0.668986 0.521315
vt 0.852367 0.525890
vt 0.676957 0.525890
vt 0.668580 0.525890
vt 0.852367 0.521076
vt 0.852367 0.525890
vt 0.660181 0.525890
vt 0.660181 0.525890
vt 0.660181 0.521082
vt 0.660181 0.521315
vt 0.660181 0.525890
vt 0.660181 0.521082
vt 0.660181 0.525890
vt 0.660181 0.521315
vt 0.676957 0.525890
vt 0.676957 0.521082
vt 0.668986 0.521315
vt 0.668580 0.525890
vt 0.676957 0.516261
vt 0.668986 0.516261
vt 0.676957 0.516261
vt 0.676957 0.516261
vt 0.676957 0.516261
vt 0.676957 0.521082
vt 0.668580 0.516261
vt 0.668580 0.516261
vt 0.668986 0.516261
vt 0.668986 0.521315
vt 0.676957 0.525890
vt 0.668580 0.525890
vt 0.660181 0.525890
vt 0.660181 0.525890
vt 0.660181 0.525890
vt 0.660181 0.521315
vt 0.660181 0.521082
vt 0.660181 0.521082
vt 0.660181 0.521315
vt 0.660181 0.525890
vn 0.1291 -0.9832 -0.1291
vn 0.1211 -0.8623 -0.4917
vn 0.4464 -0.7756 -0.4464
vn 0.4917 -0.8623 -0.1211
vn 0.1211 -0.4917 -0.8623
vn 0.4464 -0.4464 -0.7756
vn 0.0000 -0.1304 -0.9915
vn 0.1291 -0.1291 -0.9832
vn 0.0000 -0.4999 -0.8661
vn 0.0000 0.4999 -0.8661
vn 0.1211 0.4917 -0.8623
vn 0.1291 0.1291 -0.9832
vn -0.0000 0.1304 -0.9915
vn 0.0000 0.8661 -0.4999
vn 0.1211 0.8623 -0.4917
vn 0.4917 0.1211 -0.8623
vn 0.4917 -0.1211 -0.8623
vn 0.4464 0.4464 -0.7756
vn 0.4464 0.7756 -0.4464
vn 0.0000 0.9915 -0.1304
vn 0.1291 0.9832 -0.1291
vn 0.4917 0.8623 -0.1211
vn 0.0000 -0.8661 -0.4999
vn 0.0000 -0.9915 -0.1304
vn 0.9915 -0.1304 0.0000
vn 0.9832 -0.1291 -0.1291
vn 0.9832 0.1291 -0.1291
vn 0.9915 0.1304 0.0000
vn 0.8623 -0.4917 -0.1211
vn 0.7756 -0.4464 -0.4464
vn 0.8623 -0.1211 -0.4917
vn 0.8623 0.1211 -0.4917
vn 0.7756 0.4464 -0.4464
vn 0.8623 0.4917 -0.1211
vn -0.1291 -0.9832 -0.1291
vn -0.4917 -0.8623 -0.1211
vn -0.4464 -0.7756 -0.4464
vn -0.1211 -0.8623 -0.4917
vn -0.4464 -0.4464 -0.7756
vn -0.1211 -0.4917 -0.8623
vn -0.1291 -0.1291 -0.9832
vn -0.1291 0.1291 -0.9832
vn -0.1211 0.4917 -0.8623
vn -0.1211 0.8623 -0.4917
vn -0.4917 0.1211 -0.8623
vn -0.4917 -0.1211 -0.8623
vn -0.4464 0.4464 -0.7756
vn -0.4464 0.7756 -0.4464
vn -0.1291 0.9832 -0.1291
vn -0.4917 0.8623 -0.1211
vn -0.9915 -0.1304 -0.0000
vn -0.9915 0.1304 0.0000
vn -0.9832 0.1291 -0.1291
vn -0.9832 -0.1291 -0.1291
vn -0.8623 -0.1211 -0.4917
vn -0.7756 -0.4464 -0.4464
vn -0.8623 -0.4917 -0.1211
vn -0.8623 0.1211 -0.4917
vn -0.8623 0.4917 -0.1211
vn -0.7756 0.4464 -0.4464
vn -0.8661 0.4999 0.0000
vn -0.4999 0.8661 0.0000
vn -0.8661 -0.4999 -0.0000
vn -0.4999 -0.8661 -0.0000
vn -0.1304 0.9915 -0.0000
vn -0.1304 -0.9915 0.0000
vn 0.0000 -1.0000 0.0000
vn 0.0000 1.0000 0.0000
vn 0.8661 0.4999 -0.0000
vn 0.4999 0.8661 0.0000
vn 0.8661 -0.4999 0.0000
vn 0.4999 -0.8661 0.0000
vn 0.1304 0.9915 0.0000
vn 0.1304 -0.9915 0.0000
vn 0.1291 -0.9832 0.1291
vn 0.4917 -0.8623 0.1211
vn 0.4464 -0.7756 0.4464
vn 0.1211 -0.8623 0.4917
vn 0.4464 -0.4464 0.7756
vn 0.1211 -0.4917 0.8623
vn 0.0000 -0.1304 0.9915
vn 0.0000 -0.4999 0.8661
vn 0.1291 -0.1291 0.9832
vn 0.0000 0.4999 0.8661
vn -0.0000 0.1304 0.9915
vn 0.1291 0.1291 0.9832
vn 0.1211 0.4917 0.8623
vn 0.0000 0.8661 0.4999
vn 0.1211 0.8623 0.4917
vn 0.4917 0.1211 0.8623
vn 0.4917 -0.1211 0.8623
vn 0.4464 0.4464 0.7756
vn 0.4464 0.7756 0.4464
vn 0.0000 0.9915 0.1304
vn 0.1291 0.9832 0.1291
vn 0.4917 0.8623 0.1211
vn 0.0000 -0.8661 0.4999
vn 0.0000 -0.9915 0.1304
vn 0.9832 0.1291 0.1291
vn 0.9832 -0.1291 0.1291
vn 0.8623 -0.1211 0.4917
vn 0.7756 -0.4464 0.4464
vn 0.8623 -0.4917 0.1211
vn 0.8623 0.1211 0.4917
vn 0.8623 0.4917 0.1211
vn 0.7756 0.4464 0.4464
vn -0.1291 -0.9832 0.1291
vn -0.1211 -0.8623 0.4917
vn -0.4464 -0.7756 0.4464
vn -0.4917 -0.8623 0.1211
vn -0.1211 -0.4917 0.8623
vn -0.4464 -0.4464 0.7756
vn -0.1291 -0.1291 0.9832
vn -0.1211 0.4917 0.8623
vn -0.1291 0.1291 0.9832
vn -0.1211 0.8623 0.4917
vn -0.4917 0.1211 0.8623
vn -0.4917 -0.1211 0.8623
vn -0.4464 0.4464 0.7756
vn -0.4464 0.7756 0.4464
vn -0.1291 0.9832 0.1291
vn -0.4917 0.8623 0.1211
vn -0.9832 -0.1291 0.1291
vn -0.9832 0.1291 0.1291
vn -0.8623 -0.4917 0.1211
vn -0.7756 -0.4464 0.4464
vn -0.8623 -0.1211 0.4917
vn -0.8623 0.1211 0.4917
vn -0.7756 0.4464 0.4464
vn -0.8623 0.4917 0.1211
usemtl None
s 1
f 1/1/1 3/2/2 4/3/3 2/4/4
f 3/2/2 5/5/5 21/6/6 4/3/3
f 29/7/7 6/8/8 5/5/5 28/9/9
f 31/10/10 9/11/11 7/12/12 30/13/13
f 32/14/14 11/15/15 9/11/11 31/10/10
f 8/16/16 22/17/17 6/8/8 7/12/12
f 7/12/12 9/11/11 10/18/18 8/16/16
f 9/11/11 11/15/15 12/19/19 10/18/18
f 26/20/20 13/21/21 11/15/15 32/14/14
f 13/21/21 14/22/22 12/19/19 11/15/15
f 27/23/23 3/2/2 1/1/1 25/24/24
f 64/25/25 17/26/26 16/27/27 63/28/28
f 28/9/9 5/5/5 3/2/2 27/23/23
f 17/26/26 18/29/29 19/30/30 20/31/31
f 18/29/29 2/4/4 4/3/3 19/30/30
f 22/17/17 20/31/31 19/30/30 21/6/6
f 21/6/6 19/30/30 4/3/3
f 6/8/8 22/17/17 21/6/6 5/5/5
f 23/32/32 20/31/31 22/17/17 8/16/16
f 16/27/27 17/26/26 20/31/31 23/32/32
f 16/27/27 23/32/32 24/33/33 15/34/34
f 23/32/32 8/16/16 10/18/18 24/33/33
f 14/22/22 15/34/34 24/33/33 12/19/19
f 10/18/18 12/19/19 24/33/33
f 6/8/8 29/7/7 30/13/13 7/12/12
f 33/35/35 34/36/36 36/37/37 35/38/38
f 35/38/38 36/37/37 53/39/39 37/40/40
f 29/7/7 28/9/9 37/40/40 38/41/41
f 31/10/10 30/13/13 39/42/42 41/43/43
f 32/14/14 31/10/10 41/43/43 43/44/44
f 40/45/45 39/42/42 38/41/41 54/46/46
f 39/42/42 40/45/45 42/47/47 41/43/43
f 41/43/43 42/47/47 44/48/48 43/44/44
f 26/20/20 32/14/14 43/44/44 45/49/49
f 45/49/49 43/44/44 44/48/48 46/50/50
f 27/23/23 25/24/24 33/35/35 35/38/38
f 74/51/51 73/52/52 48/53/53 49/54/54
f 28/9/9 27/23/23 35/38/38 37/40/40
f 49/54/54 52/55/55 51/56/56 50/57/57
f 50/57/57 51/56/56 36/37/37 34/36/36
f 54/46/46 53/39/39 51/56/56 52/55/55
f 53/39/39 36/37/37 51/56/56
f 38/41/41 37/40/40 53/39/39 54/46/46
f 55/58/58 40/45/45 54/46/46 52/55/55
f 48/53/53 55/58/58 52/55/55 49/54/54
f 48/53/53 47/59/59 56/60/60 55/58/58
f 55/58/58 56/60/60 42/47/47 40/45/45
f 46/50/50 44/48/48 56/60/60 47/59/59
f 42/47/47 56/60/60 44/48/48
f 38/41/41 39/42/42 30/13/13 29/7/7
f 47/59/59 48/53/53 73/52/52 72/61/61
f 46/50/50 47/59/59 72/61/61 71/62/62
f 49/54/54 50/57/57 70/63/63 74/51/51
f 50/57/57 34/36/36 69/64/64 70/63/63
f 45/49/49 46/50/50 71/62/62 68/65/65
f 34/36/36 33/35/35 67/66/66 69/64/64
f 33/35/35 25/24/24 66/67/67 67/66/66
f 45/49/49 68/65/65 65/68/68 26/20/20
f 15/34/34 62/69/69 63/28/28 16/27/27
f 14/22/22 61/70/70 62/69/69 15/34/34
f 17/26/26 64/25/25 60/71/71 18/29/29
f 18/29/29 60/71/71 59/72/72 2/4/4
f 13/21/21 58/73/73 61/70/70 14/22/22
f 13/21/21 26/20/20 65/68/68 58/73/73
f 2/4/4 59/72/72 57/74/74 1/1/1
f 1/1/1 57/74/74 66/67/67 25/24/24
f 75/75/75 76/76/76 78/77/77 77/78/78
f 77/78/78 78/77/77 95/79/79 79/80/80
f 103/81/81 102/82/82 79/80/80 80/83/83
f 105/84/84 104/85/85 81/86/86 83/87/87
f 106/88/88 105/84/84 83/87/87 85/89/89
f 82/90/90 81/86/86 80/83/83 96/91/91
f 81/86/86 82/90/90 84/92/92 83/87/87
f 83/87/87 84/92/92 86/93/93 85/89/89
f 100/94/94 106/88/88 85/89/89 87/95/95
f 87/95/95 85/89/89 86/93/93 88/96/96
f 101/97/97 99/98/98 75/75/75 77/78/78
f 64/25/25 63/28/28 90/99/99 91/100/100
f 102/82/82 101/97/97 77/78/78 79/80/80
f 91/100/100 94/101/101 93/102/102 92/103/103
f 92/103/103 93/102/102 78/77/77 76/76/76
f 96/91/91 95/79/79 93/102/102 94/101/101
f 95/79/79 78/77/77 93/102/102
f 80/83/83 79/80/80 95/79/79 96/91/91
f 97/104/104 82/90/90 96/91/91 94/101/101
f 90/99/99 97/104/104 94/101/101 91/100/100
f 90/99/99 89/105/105 98/106/106 97/104/104
f 97/104/104 98/106/106 84/92/92 82/90/90
f 88/96/96 86/93/93 98/106/106 89/105/105
f 84/92/92 98/106/106 86/93/93
f 80/83/83 81/86/86 104/85/85 103/81/81
f 107/107/107 109/108/108 110/109/109 108/110/110
f 109/108/108 111/111/111 127/112/112 110/109/109
f 103/81/81 112/113/113 111/111/111 102/82/82
f 105/84/84 115/114/114 113/115/115 104/85/85
f 106/88/88 117/116/116 115/114/114 105/84/84
f 114/117/117 128/118/118 112/113/113 113/115/115
f 113/115/115 115/114/114 116/119/119 114/117/117
f 115/114/114 117/116/116 118/120/120 116/119/119
f 100/94/94 119/121/121 117/116/116 106/88/88
f 119/121/121 120/122/122 118/120/120 117/116/116
f 101/97/97 109/108/108 107/107/107 99/98/98
f 74/51/51 123/123/123 122/124/124 73/52/52
f 102/82/82 111/111/111 109/108/108 101/97/97
f 123/123/123 124/125/125 125/126/126 126/127/127
f 124/125/125 108/110/110 110/109/109 125/126/126
f 128/118/118 126/127/127 125/126/126 127/112/112
f 127/112/112 125/126/126 110/109/109
f 112/113/113 128/118/118 127/112/112 111/111/111
f 129/128/128 126/127/127 128/118/118 114/117/117
f 122/124/124 123/123/123 126/127/127 129/128/128
f 122/124/124 129/128/128 130/129/129 121/130/130
f 129/128/128 114/117/117 116/119/119 130/129/129
f 120/122/122 121/130/130 130/129/129 118/120/120
f 116/119/119 118/120/120 130/129/129
f 112/113/113 103/81/81 104/85/85 113/115/115
f 121/130/130 72/61/61 73/52/52 122/124/124
f 120/122/122 71/62/62 72/61/61 121/130/130
f 123/123/123 74/51/51 70/63/63 124/125/125
f 124/125/125 70/63/63 69/64/64 108/110/110
f 119/121/121 68/65/65 71/62/62 120/122/122
f 108/110/110 69/64/64 67/66/66 107/107/107
f 107/107/107 67/66/66 66/67/67 99/98/98
f 119/121/121 100/94/94 65/68/68 68/65/65
f 89/105/105 90/99/99 63/28/28 62/69/69
f 88/96/96 89/105/105 62/69/69 61/70/70
f 91/100/100 92/103/103 60/71/71 64/25/25
f 92/103/103 76/76/76 59/72/72 60/71/71
f 87/95/95 88/96/96 61/70/70 58/73/73
f 87/95/95 58/73/73 65/68/68 100/94/94
f 76/76/76 75/75/75 57/74/74 59/72/72
f 75/75/75 99/98/98 66/67/67 57/74/74
