# Blender v3.2.1 OBJ File: 'untitled.blend'
# www.blender.org
mtllib window.mtl
o window_Cube.007
v -1.800000 1.970000 0.750000
v -1.800000 1.970000 -0.250000
v -1.800000 1.015374 0.750000
v -1.800000 1.015374 -0.250000
v -1.831872 1.970000 0.750000
v -1.831872 1.970000 -0.250000
v -1.831872 1.015374 0.750000
v -1.831872 1.015374 -0.250000
v -1.801075 1.937813 -0.216283
v -1.801075 1.937813 0.716284
v -1.801075 1.047560 0.716284
v -1.801075 1.047560 -0.216283
v -1.830798 1.937813 -0.216283
v -1.830798 1.937813 0.716284
v -1.830798 1.047560 0.716284
v -1.830798 1.047560 -0.216283
v -1.800000 1.492687 0.750000
v -1.831872 1.492687 0.750000
v -1.801075 1.492687 0.716284
v -1.830798 1.492687 0.716284
v -1.800000 1.492687 -0.250000
v -1.831872 1.492687 -0.250000
v -1.801075 1.492687 -0.216283
v -1.830798 1.492687 -0.216283
v -1.800000 1.970000 0.250000
v -1.831872 1.970000 0.250000
v -1.801075 1.937813 0.250000
v -1.830798 1.937813 0.250000
v -1.800000 1.015374 0.250000
v -1.831872 1.015374 0.250000
v -1.801075 1.047560 0.250000
v -1.830798 1.047560 0.250000
v -1.815936 1.047560 0.716284
v -1.815936 1.047560 -0.216283
v -1.815936 1.937813 0.716284
v -1.815936 1.937813 -0.216283
v -1.830748 1.492687 0.716284
v -1.815936 1.512226 0.716284
v -1.801125 1.492687 0.716284
v -1.815936 1.473148 0.716284
v -1.830748 1.492687 -0.216283
v -1.815936 1.512226 -0.216283
v -1.801125 1.492687 -0.216283
v -1.815936 1.473148 -0.216283
v -1.830748 1.937813 0.250000
v -1.815936 1.937813 0.269539
v -1.801125 1.937813 0.250000
v -1.815936 1.937813 0.230461
v -1.830748 1.047560 0.250000
v -1.815936 1.047560 0.269539
v -1.801125 1.047560 0.250000
v -1.815936 1.047560 0.230461
vt 0.000000 0.000000
vt 0.000000 0.000000
vt 0.000000 0.000000
vt 0.000000 0.000000
vt 0.000000 0.000000
vt 0.000000 0.000000
vt 0.000000 0.000000
vt 0.000000 0.000000
vt 0.000000 0.000000
vt 0.000000 0.000000
vt 0.000000 0.000000
vt 0.000000 0.000000
vt 0.000000 0.000000
vt 0.000000 0.000000
vt 0.000000 0.000000
vt 0.000000 0.000000
vt 0.000000 0.000000
vt 0.000000 0.000000
vt 0.000000 0.000000
vt 0.000000 0.000000
vt 0.000000 0.000000
vt 0.000000 0.000000
vt 0.000000 0.000000
vt 0.000000 0.000000
vt 0.000000 0.000000
vt 0.000000 0.000000
vt 0.000000 0.000000
vt 0.000000 0.000000
vt 0.000000 0.000000
vt 0.000000 0.000000
vt 0.000000 0.000000
vt 0.000000 0.000000
vt 0.000000 0.000000
vt 0.000000 0.000000
vt 0.000000 0.000000
vt 0.000000 0.000000
vt 0.000000 0.000000
vt 0.000000 0.000000
vt 0.000000 0.000000
vt 0.000000 0.000000
vt 0.000000 0.000000
vt 0.000000 0.000000
vt 0.000000 0.000000
vt 0.000000 0.000000
vt 0.000000 0.000000
vt 0.000000 0.000000
vt 0.000000 0.000000
vt 0.000000 0.000000
vt 0.000000 0.000000
vt 0.000000 0.000000
vt 0.000000 0.000000
vt 0.000000 0.000000
vn 0.0000 -1.0000 0.0000
vn 0.0000 0.0000 1.0000
vn 0.0000 0.0000 -1.0000
vn 0.0000 1.0000 0.0000
vn -0.9994 -0.0334 0.0000
vn 0.9995 0.0000 0.0319
vn 0.9994 -0.0334 0.0000
vn -0.9994 0.0334 0.0000
vn -0.9995 0.0000 -0.0319
vn 0.9994 0.0334 0.0000
vn 0.9995 0.0000 -0.0319
vn -0.9995 0.0000 0.0319
vn 0.7969 0.0000 -0.6041
vn 0.7969 0.0000 0.6041
vn 0.7969 0.6041 0.0000
vn 0.7969 -0.6041 0.0000
vn -0.7969 -0.6041 0.0000
vn -0.7969 0.6041 0.0000
vn -0.7969 0.0000 -0.6041
vn -0.7969 0.0000 0.6041
usemtl Material.005
s off
f 29/1/1 30/2/1 8/3/1 4/4/1
f 17/5/2 18/6/2 7/7/2 3/8/2
f 21/9/3 4/4/3 8/3/3 22/10/3
f 25/11/4 2/12/4 6/13/4 26/14/4
f 36/15/2 13/16/2 24/17/2 41/18/2 42/19/2
f 35/20/1 14/21/1 28/22/1 45/23/1 46/24/1
f 33/25/4 50/26/4 49/27/4 32/28/4 15/29/4
f 26/14/5 28/22/5 14/21/5 5/30/5
f 21/9/6 23/31/6 12/32/6 4/4/6
f 25/11/7 27/33/7 9/34/7 2/12/7
f 30/2/8 7/7/8 15/29/8 32/28/8
f 18/6/9 5/30/9 14/21/9 20/35/9
f 29/1/10 4/4/10 12/32/10 31/36/10
f 17/5/11 3/8/11 11/37/11 19/38/11
f 22/10/12 24/17/12 13/16/12 6/13/12
f 1/39/11 17/5/11 19/38/11 10/40/11
f 7/7/9 18/6/9 20/35/9 15/29/9
f 19/38/3 11/37/3 33/25/3 40/41/3 39/42/3
f 1/39/2 5/30/2 18/6/2 17/5/2
f 8/3/12 16/43/12 24/17/12 22/10/12
f 2/12/6 9/34/6 23/31/6 21/9/6
f 23/31/2 43/44/2 44/45/2 34/46/2 12/32/2
f 2/12/3 21/9/3 22/10/3 6/13/3
f 1/39/7 10/40/7 27/33/7 25/11/7
f 6/13/5 13/16/5 28/22/5 26/14/5
f 27/33/1 47/47/1 48/48/1 36/15/1 9/34/1
f 1/39/4 25/11/4 26/14/4 5/30/4
f 3/8/10 29/1/10 31/36/10 11/37/10
f 8/3/8 30/2/8 32/28/8 16/43/8
f 31/36/4 12/32/4 34/46/4 52/49/4 51/50/4
f 3/8/1 7/7/1 30/2/1 29/1/1
f 49/27/4 52/49/4 34/46/4 16/43/4 32/28/4
f 45/23/1 28/22/1 13/16/1 36/15/1 48/48/1
f 41/18/2 24/17/2 16/43/2 34/46/2 44/45/2
f 37/51/3 40/41/3 33/25/3 15/29/3 20/35/3
f 10/40/1 35/20/1 46/24/1 47/47/1 27/33/1
f 9/34/2 36/15/2 42/19/2 43/44/2 23/31/2
f 10/40/3 19/38/3 39/42/3 38/52/3 35/20/3
f 11/37/4 31/36/4 51/50/4 50/26/4 33/25/4
f 47/47/13 51/50/13 52/49/13 48/48/13
f 46/24/14 50/26/14 51/50/14 47/47/14
f 35/20/3 38/52/3 37/51/3 20/35/3 14/21/3
f 38/52/15 39/42/15 43/44/15 42/19/15
f 39/42/16 40/41/16 44/45/16 43/44/16
f 40/41/17 37/51/17 41/18/17 44/45/17
f 37/51/18 38/52/18 42/19/18 41/18/18
f 48/48/19 52/49/19 49/27/19 45/23/19
f 45/23/20 49/27/20 50/26/20 46/24/20
